<?xml version="1.0" encoding="utf-8" standalone="no"?>
<!DOCTYPE svg PUBLIC "-//W3C//DTD SVG 1.1//EN"
  "http://www.w3.org/Graphics/SVG/1.1/DTD/svg11.dtd">
<svg xmlns:xlink="http://www.w3.org/1999/xlink" width="463.893125pt" height="319.177409pt" viewBox="0 0 463.893125 319.177409" xmlns="http://www.w3.org/2000/svg" version="1.1">
 <metadata>
  <rdf:RDF xmlns:dc="http://purl.org/dc/elements/1.1/" xmlns:cc="http://creativecommons.org/ns#" xmlns:rdf="http://www.w3.org/1999/02/22-rdf-syntax-ns#">
   <cc:Work>
    <dc:type rdf:resource="http://purl.org/dc/dcmitype/StillImage"/>
    <dc:date>2026-03-07T17:15:27.051916</dc:date>
    <dc:format>image/svg+xml</dc:format>
    <dc:creator>
     <cc:Agent>
      <dc:title>Matplotlib v3.10.7, https://matplotlib.org/</dc:title>
     </cc:Agent>
    </dc:creator>
   </cc:Work>
  </rdf:RDF>
 </metadata>
 <defs>
  <style type="text/css">*{stroke-linejoin: round; stroke-linecap: butt}</style>
 </defs>
 <g id="figure_1">
  <g id="patch_1">
   <path d="M 0 319.177409 
L 463.893125 319.177409 
L 463.893125 0 
L 0 0 
z
" style="fill: #ffffff"/>
  </g>
  <g id="axes_1">
   <g id="patch_2">
    <path d="M 57.185 276.379284 
L 414.305 276.379284 
L 414.305 10.267284 
L 57.185 10.267284 
z
" style="fill: #ffffff"/>
   </g>
   <g id="patch_3">
    <path d="M 78.831683 42572.587705 
L 81.514377 42572.587705 
L 81.514377 251.470969 
L 78.831683 251.470969 
z
" clip-path="url(#pca4546073c)" style="fill: #4682b4; opacity: 0.85"/>
   </g>
   <g id="patch_4">
    <path d="M 81.514377 42572.587705 
L 84.197071 42572.587705 
L 84.197071 42572.587705 
L 81.514377 42572.587705 
z
" clip-path="url(#pca4546073c)" style="fill: #4682b4; opacity: 0.85"/>
   </g>
   <g id="patch_5">
    <path d="M 84.197071 42572.587705 
L 86.879765 42572.587705 
L 86.879765 42572.587705 
L 84.197071 42572.587705 
z
" clip-path="url(#pca4546073c)" style="fill: #4682b4; opacity: 0.85"/>
   </g>
   <g id="patch_6">
    <path d="M 86.879765 42572.587705 
L 89.562459 42572.587705 
L 89.562459 42572.587705 
L 86.879765 42572.587705 
z
" clip-path="url(#pca4546073c)" style="fill: #4682b4; opacity: 0.85"/>
   </g>
   <g id="patch_7">
    <path d="M 89.562459 42572.587705 
L 92.245154 42572.587705 
L 92.245154 42572.587705 
L 89.562459 42572.587705 
z
" clip-path="url(#pca4546073c)" style="fill: #4682b4; opacity: 0.85"/>
   </g>
   <g id="patch_8">
    <path d="M 92.245154 42572.587705 
L 94.927848 42572.587705 
L 94.927848 42572.587705 
L 92.245154 42572.587705 
z
" clip-path="url(#pca4546073c)" style="fill: #4682b4; opacity: 0.85"/>
   </g>
   <g id="patch_9">
    <path d="M 94.927848 42572.587705 
L 97.610542 42572.587705 
L 97.610542 42572.587705 
L 94.927848 42572.587705 
z
" clip-path="url(#pca4546073c)" style="fill: #4682b4; opacity: 0.85"/>
   </g>
   <g id="patch_10">
    <path d="M 97.610542 42572.587705 
L 100.293236 42572.587705 
L 100.293236 42572.587705 
L 97.610542 42572.587705 
z
" clip-path="url(#pca4546073c)" style="fill: #4682b4; opacity: 0.85"/>
   </g>
   <g id="patch_11">
    <path d="M 100.293236 42572.587705 
L 102.97593 42572.587705 
L 102.97593 264.283284 
L 100.293236 264.283284 
z
" clip-path="url(#pca4546073c)" style="fill: #4682b4; opacity: 0.85"/>
   </g>
   <g id="patch_12">
    <path d="M 102.97593 42572.587705 
L 105.658624 42572.587705 
L 105.658624 243.976245 
L 102.97593 243.976245 
z
" clip-path="url(#pca4546073c)" style="fill: #4682b4; opacity: 0.85"/>
   </g>
   <g id="patch_13">
    <path d="M 105.658624 42572.587705 
L 108.341318 42572.587705 
L 108.341318 243.976245 
L 105.658624 243.976245 
z
" clip-path="url(#pca4546073c)" style="fill: #4682b4; opacity: 0.85"/>
   </g>
   <g id="patch_14">
    <path d="M 108.341318 42572.587705 
L 111.024012 42572.587705 
L 111.024012 42572.587705 
L 108.341318 42572.587705 
z
" clip-path="url(#pca4546073c)" style="fill: #4682b4; opacity: 0.85"/>
   </g>
   <g id="patch_15">
    <path d="M 111.024012 42572.587705 
L 113.706706 42572.587705 
L 113.706706 251.470969 
L 111.024012 251.470969 
z
" clip-path="url(#pca4546073c)" style="fill: #4682b4; opacity: 0.85"/>
   </g>
   <g id="patch_16">
    <path d="M 113.706706 42572.587705 
L 116.3894 42572.587705 
L 116.3894 251.470969 
L 113.706706 251.470969 
z
" clip-path="url(#pca4546073c)" style="fill: #4682b4; opacity: 0.85"/>
   </g>
   <g id="patch_17">
    <path d="M 116.3894 42572.587705 
L 119.072094 42572.587705 
L 119.072094 243.976245 
L 116.3894 243.976245 
z
" clip-path="url(#pca4546073c)" style="fill: #4682b4; opacity: 0.85"/>
   </g>
   <g id="patch_18">
    <path d="M 119.072094 42572.587705 
L 121.754788 42572.587705 
L 121.754788 238.658654 
L 119.072094 238.658654 
z
" clip-path="url(#pca4546073c)" style="fill: #4682b4; opacity: 0.85"/>
   </g>
   <g id="patch_19">
    <path d="M 121.754788 42572.587705 
L 124.437482 42572.587705 
L 124.437482 234.53401 
L 121.754788 234.53401 
z
" clip-path="url(#pca4546073c)" style="fill: #4682b4; opacity: 0.85"/>
   </g>
   <g id="patch_20">
    <path d="M 124.437482 42572.587705 
L 127.120176 42572.587705 
L 127.120176 228.314569 
L 124.437482 228.314569 
z
" clip-path="url(#pca4546073c)" style="fill: #4682b4; opacity: 0.85"/>
   </g>
   <g id="patch_21">
    <path d="M 127.120176 42572.587705 
L 129.80287 42572.587705 
L 129.80287 228.314569 
L 127.120176 228.314569 
z
" clip-path="url(#pca4546073c)" style="fill: #4682b4; opacity: 0.85"/>
   </g>
   <g id="patch_22">
    <path d="M 129.80287 42572.587705 
L 132.485564 42572.587705 
L 132.485564 223.669207 
L 129.80287 223.669207 
z
" clip-path="url(#pca4546073c)" style="fill: #4682b4; opacity: 0.85"/>
   </g>
   <g id="patch_23">
    <path d="M 132.485564 42572.587705 
L 135.168258 42572.587705 
L 135.168258 218.351616 
L 132.485564 218.351616 
z
" clip-path="url(#pca4546073c)" style="fill: #4682b4; opacity: 0.85"/>
   </g>
   <g id="patch_24">
    <path d="M 135.168258 42572.587705 
L 137.850952 42572.587705 
L 137.850952 231.163931 
L 135.168258 231.163931 
z
" clip-path="url(#pca4546073c)" style="fill: #4682b4; opacity: 0.85"/>
   </g>
   <g id="patch_25">
    <path d="M 137.850952 42572.587705 
L 140.533646 42572.587705 
L 140.533646 219.959957 
L 137.850952 219.959957 
z
" clip-path="url(#pca4546073c)" style="fill: #4682b4; opacity: 0.85"/>
   </g>
   <g id="patch_26">
    <path d="M 140.533646 42572.587705 
L 143.21634 42572.587705 
L 143.21634 206.325984 
L 140.533646 206.325984 
z
" clip-path="url(#pca4546073c)" style="fill: #4682b4; opacity: 0.85"/>
   </g>
   <g id="patch_27">
    <path d="M 143.21634 42572.587705 
L 145.899034 42572.587705 
L 145.899034 210.856892 
L 143.21634 210.856892 
z
" clip-path="url(#pca4546073c)" style="fill: #4682b4; opacity: 0.85"/>
   </g>
   <g id="patch_28">
    <path d="M 145.899034 42572.587705 
L 148.581728 42572.587705 
L 148.581728 208.909381 
L 145.899034 208.909381 
z
" clip-path="url(#pca4546073c)" style="fill: #4682b4; opacity: 0.85"/>
   </g>
   <g id="patch_29">
    <path d="M 148.581728 42572.587705 
L 151.264422 42572.587705 
L 151.264422 203.362168 
L 148.581728 203.362168 
z
" clip-path="url(#pca4546073c)" style="fill: #4682b4; opacity: 0.85"/>
   </g>
   <g id="patch_30">
    <path d="M 151.264422 42572.587705 
L 153.947116 42572.587705 
L 153.947116 203.362168 
L 151.264422 203.362168 
z
" clip-path="url(#pca4546073c)" style="fill: #4682b4; opacity: 0.85"/>
   </g>
   <g id="patch_31">
    <path d="M 153.947116 42572.587705 
L 156.62981 42572.587705 
L 156.62981 194.335327 
L 153.947116 194.335327 
z
" clip-path="url(#pca4546073c)" style="fill: #4682b4; opacity: 0.85"/>
   </g>
   <g id="patch_32">
    <path d="M 156.62981 42572.587705 
L 159.312504 42572.587705 
L 159.312504 190.210683 
L 156.62981 190.210683 
z
" clip-path="url(#pca4546073c)" style="fill: #4682b4; opacity: 0.85"/>
   </g>
   <g id="patch_33">
    <path d="M 159.312504 42572.587705 
L 161.995198 42572.587705 
L 161.995198 184.725813 
L 159.312504 184.725813 
z
" clip-path="url(#pca4546073c)" style="fill: #4682b4; opacity: 0.85"/>
   </g>
   <g id="patch_34">
    <path d="M 161.995198 42572.587705 
L 164.677892 42572.587705 
L 164.677892 175.944708 
L 161.995198 175.944708 
z
" clip-path="url(#pca4546073c)" style="fill: #4682b4; opacity: 0.85"/>
   </g>
   <g id="patch_35">
    <path d="M 164.677892 42572.587705 
L 167.360586 42572.587705 
L 167.360586 166.440445 
L 164.677892 166.440445 
z
" clip-path="url(#pca4546073c)" style="fill: #4682b4; opacity: 0.85"/>
   </g>
   <g id="patch_36">
    <path d="M 167.360586 42572.587705 
L 170.04328 42572.587705 
L 170.04328 164.586054 
L 167.360586 164.586054 
z
" clip-path="url(#pca4546073c)" style="fill: #4682b4; opacity: 0.85"/>
   </g>
   <g id="patch_37">
    <path d="M 170.04328 42572.587705 
L 172.725974 42572.587705 
L 172.725974 158.791557 
L 170.04328 158.791557 
z
" clip-path="url(#pca4546073c)" style="fill: #4682b4; opacity: 0.85"/>
   </g>
   <g id="patch_38">
    <path d="M 172.725974 42572.587705 
L 175.408668 42572.587705 
L 175.408668 155.63767 
L 172.725974 155.63767 
z
" clip-path="url(#pca4546073c)" style="fill: #4682b4; opacity: 0.85"/>
   </g>
   <g id="patch_39">
    <path d="M 175.408668 42572.587705 
L 178.091362 42572.587705 
L 178.091362 149.935777 
L 175.408668 149.935777 
z
" clip-path="url(#pca4546073c)" style="fill: #4682b4; opacity: 0.85"/>
   </g>
   <g id="patch_40">
    <path d="M 178.091362 42572.587705 
L 180.774056 42572.587705 
L 180.774056 126.509686 
L 178.091362 126.509686 
z
" clip-path="url(#pca4546073c)" style="fill: #4682b4; opacity: 0.85"/>
   </g>
   <g id="patch_41">
    <path d="M 180.774056 42572.587705 
L 183.45675 42572.587705 
L 183.45675 55.020219 
L 180.774056 55.020219 
z
" clip-path="url(#pca4546073c)" style="fill: #4682b4; opacity: 0.85"/>
   </g>
   <g id="patch_42">
    <path d="M 183.45675 42572.587705 
L 186.139444 42572.587705 
L 186.139444 22.363284 
L 183.45675 22.363284 
z
" clip-path="url(#pca4546073c)" style="fill: #4682b4; opacity: 0.85"/>
   </g>
   <g id="patch_43">
    <path d="M 186.139444 42572.587705 
L 188.822139 42572.587705 
L 188.822139 33.96891 
L 186.139444 33.96891 
z
" clip-path="url(#pca4546073c)" style="fill: #4682b4; opacity: 0.85"/>
   </g>
   <g id="patch_44">
    <path d="M 188.822139 42572.587705 
L 191.504833 42572.587705 
L 191.504833 69.322031 
L 188.822139 69.322031 
z
" clip-path="url(#pca4546073c)" style="fill: #4682b4; opacity: 0.85"/>
   </g>
   <g id="patch_45">
    <path d="M 191.504833 42572.587705 
L 194.187527 42572.587705 
L 194.187527 90.237496 
L 191.504833 90.237496 
z
" clip-path="url(#pca4546073c)" style="fill: #4682b4; opacity: 0.85"/>
   </g>
   <g id="patch_46">
    <path d="M 194.187527 42572.587705 
L 196.870221 42572.587705 
L 196.870221 104.089882 
L 194.187527 104.089882 
z
" clip-path="url(#pca4546073c)" style="fill: #4682b4; opacity: 0.85"/>
   </g>
   <g id="patch_47">
    <path d="M 196.870221 42572.587705 
L 199.552915 42572.587705 
L 199.552915 117.071735 
L 196.870221 117.071735 
z
" clip-path="url(#pca4546073c)" style="fill: #4682b4; opacity: 0.85"/>
   </g>
   <g id="patch_48">
    <path d="M 199.552915 42572.587705 
L 202.235609 42572.587705 
L 202.235609 128.296072 
L 199.552915 128.296072 
z
" clip-path="url(#pca4546073c)" style="fill: #4682b4; opacity: 0.85"/>
   </g>
   <g id="patch_49">
    <path d="M 202.235609 42572.587705 
L 204.918303 42572.587705 
L 204.918303 138.669671 
L 202.235609 138.669671 
z
" clip-path="url(#pca4546073c)" style="fill: #4682b4; opacity: 0.85"/>
   </g>
   <g id="patch_50">
    <path d="M 204.918303 42572.587705 
L 207.600997 42572.587705 
L 207.600997 146.60377 
L 204.918303 146.60377 
z
" clip-path="url(#pca4546073c)" style="fill: #4682b4; opacity: 0.85"/>
   </g>
   <g id="patch_51">
    <path d="M 207.600997 42572.587705 
L 210.283691 42572.587705 
L 210.283691 151.358345 
L 207.600997 151.358345 
z
" clip-path="url(#pca4546073c)" style="fill: #4682b4; opacity: 0.85"/>
   </g>
   <g id="patch_52">
    <path d="M 210.283691 42572.587705 
L 212.966385 42572.587705 
L 212.966385 155.278741 
L 210.283691 155.278741 
z
" clip-path="url(#pca4546073c)" style="fill: #4682b4; opacity: 0.85"/>
   </g>
   <g id="patch_53">
    <path d="M 212.966385 42572.587705 
L 215.649079 42572.587705 
L 215.649079 159.163736 
L 212.966385 159.163736 
z
" clip-path="url(#pca4546073c)" style="fill: #4682b4; opacity: 0.85"/>
   </g>
   <g id="patch_54">
    <path d="M 215.649079 42572.587705 
L 218.331773 42572.587705 
L 218.331773 160.194484 
L 215.649079 160.194484 
z
" clip-path="url(#pca4546073c)" style="fill: #4682b4; opacity: 0.85"/>
   </g>
   <g id="patch_55">
    <path d="M 218.331773 42572.587705 
L 221.014467 42572.587705 
L 221.014467 159.543563 
L 218.331773 159.543563 
z
" clip-path="url(#pca4546073c)" style="fill: #4682b4; opacity: 0.85"/>
   </g>
   <g id="patch_56">
    <path d="M 221.014467 42572.587705 
L 223.697161 42572.587705 
L 223.697161 160.93801 
L 221.014467 160.93801 
z
" clip-path="url(#pca4546073c)" style="fill: #4682b4; opacity: 0.85"/>
   </g>
   <g id="patch_57">
    <path d="M 223.697161 42572.587705 
L 226.379855 42572.587705 
L 226.379855 163.366869 
L 223.697161 163.366869 
z
" clip-path="url(#pca4546073c)" style="fill: #4682b4; opacity: 0.85"/>
   </g>
   <g id="patch_58">
    <path d="M 226.379855 42572.587705 
L 229.062549 42572.587705 
L 229.062549 163.445694 
L 226.379855 163.445694 
z
" clip-path="url(#pca4546073c)" style="fill: #4682b4; opacity: 0.85"/>
   </g>
   <g id="patch_59">
    <path d="M 229.062549 42572.587705 
L 231.745243 42572.587705 
L 231.745243 168.605971 
L 229.062549 168.605971 
z
" clip-path="url(#pca4546073c)" style="fill: #4682b4; opacity: 0.85"/>
   </g>
   <g id="patch_60">
    <path d="M 231.745243 42572.587705 
L 234.427937 42572.587705 
L 234.427937 176.738146 
L 231.745243 176.738146 
z
" clip-path="url(#pca4546073c)" style="fill: #4682b4; opacity: 0.85"/>
   </g>
   <g id="patch_61">
    <path d="M 234.427937 42572.587705 
L 237.110631 42572.587705 
L 237.110631 196.565047 
L 234.427937 196.565047 
z
" clip-path="url(#pca4546073c)" style="fill: #4682b4; opacity: 0.85"/>
   </g>
   <g id="patch_62">
    <path d="M 237.110631 42572.587705 
L 239.793325 42572.587705 
L 239.793325 201.414657 
L 237.110631 201.414657 
z
" clip-path="url(#pca4546073c)" style="fill: #4682b4; opacity: 0.85"/>
   </g>
   <g id="patch_63">
    <path d="M 239.793325 42572.587705 
L 242.476019 42572.587705 
L 242.476019 215.502254 
L 239.793325 215.502254 
z
" clip-path="url(#pca4546073c)" style="fill: #4682b4; opacity: 0.85"/>
   </g>
   <g id="patch_64">
    <path d="M 242.476019 42572.587705 
L 245.158713 42572.587705 
L 245.158713 213.034025 
L 242.476019 213.034025 
z
" clip-path="url(#pca4546073c)" style="fill: #4682b4; opacity: 0.85"/>
   </g>
   <g id="patch_65">
    <path d="M 245.158713 42572.587705 
L 247.841407 42572.587705 
L 247.841407 206.325984 
L 245.158713 206.325984 
z
" clip-path="url(#pca4546073c)" style="fill: #4682b4; opacity: 0.85"/>
   </g>
   <g id="patch_66">
    <path d="M 247.841407 42572.587705 
L 250.524101 42572.587705 
L 250.524101 200.808561 
L 247.841407 200.808561 
z
" clip-path="url(#pca4546073c)" style="fill: #4682b4; opacity: 0.85"/>
   </g>
   <g id="patch_67">
    <path d="M 250.524101 42572.587705 
L 253.206795 42572.587705 
L 253.206795 196.565047 
L 250.524101 196.565047 
z
" clip-path="url(#pca4546073c)" style="fill: #4682b4; opacity: 0.85"/>
   </g>
   <g id="patch_68">
    <path d="M 253.206795 42572.587705 
L 255.889489 42572.587705 
L 255.889489 197.538127 
L 253.206795 197.538127 
z
" clip-path="url(#pca4546073c)" style="fill: #4682b4; opacity: 0.85"/>
   </g>
   <g id="patch_69">
    <path d="M 255.889489 42572.587705 
L 258.572183 42572.587705 
L 258.572183 190.549854 
L 255.889489 190.549854 
z
" clip-path="url(#pca4546073c)" style="fill: #4682b4; opacity: 0.85"/>
   </g>
   <g id="patch_70">
    <path d="M 258.572183 42572.587705 
L 261.254877 42572.587705 
L 261.254877 195.640641 
L 258.572183 195.640641 
z
" clip-path="url(#pca4546073c)" style="fill: #4682b4; opacity: 0.85"/>
   </g>
   <g id="patch_71">
    <path d="M 261.254877 42572.587705 
L 263.937571 42572.587705 
L 263.937571 192.726986 
L 261.254877 192.726986 
z
" clip-path="url(#pca4546073c)" style="fill: #4682b4; opacity: 0.85"/>
   </g>
   <g id="patch_72">
    <path d="M 263.937571 42572.587705 
L 266.620265 42572.587705 
L 266.620265 190.210683 
L 263.937571 190.210683 
z
" clip-path="url(#pca4546073c)" style="fill: #4682b4; opacity: 0.85"/>
   </g>
   <g id="patch_73">
    <path d="M 266.620265 42572.587705 
L 269.302959 42572.587705 
L 269.302959 186.018946 
L 266.620265 186.018946 
z
" clip-path="url(#pca4546073c)" style="fill: #4682b4; opacity: 0.85"/>
   </g>
   <g id="patch_74">
    <path d="M 269.302959 42572.587705 
L 271.985653 42572.587705 
L 271.985653 186.018946 
L 269.302959 186.018946 
z
" clip-path="url(#pca4546073c)" style="fill: #4682b4; opacity: 0.85"/>
   </g>
   <g id="patch_75">
    <path d="M 271.985653 42572.587705 
L 274.668347 42572.587705 
L 274.668347 183.752732 
L 271.985653 183.752732 
z
" clip-path="url(#pca4546073c)" style="fill: #4682b4; opacity: 0.85"/>
   </g>
   <g id="patch_76">
    <path d="M 274.668347 42572.587705 
L 277.351041 42572.587705 
L 277.351041 184.477698 
L 274.668347 184.477698 
z
" clip-path="url(#pca4546073c)" style="fill: #4682b4; opacity: 0.85"/>
   </g>
   <g id="patch_77">
    <path d="M 277.351041 42572.587705 
L 280.033735 42572.587705 
L 280.033735 186.018946 
L 277.351041 186.018946 
z
" clip-path="url(#pca4546073c)" style="fill: #4682b4; opacity: 0.85"/>
   </g>
   <g id="patch_78">
    <path d="M 280.033735 42572.587705 
L 282.71643 42572.587705 
L 282.71643 183.284751 
L 280.033735 183.284751 
z
" clip-path="url(#pca4546073c)" style="fill: #4682b4; opacity: 0.85"/>
   </g>
   <g id="patch_79">
    <path d="M 282.71643 42572.587705 
L 285.399124 42572.587705 
L 285.399124 186.288794 
L 282.71643 186.288794 
z
" clip-path="url(#pca4546073c)" style="fill: #4682b4; opacity: 0.85"/>
   </g>
   <g id="patch_80">
    <path d="M 285.399124 42572.587705 
L 288.081818 42572.587705 
L 288.081818 189.228987 
L 285.399124 189.228987 
z
" clip-path="url(#pca4546073c)" style="fill: #4682b4; opacity: 0.85"/>
   </g>
   <g id="patch_81">
    <path d="M 288.081818 42572.587705 
L 290.764512 42572.587705 
L 290.764512 191.247456 
L 288.081818 191.247456 
z
" clip-path="url(#pca4546073c)" style="fill: #4682b4; opacity: 0.85"/>
   </g>
   <g id="patch_82">
    <path d="M 290.764512 42572.587705 
L 293.447206 42572.587705 
L 293.447206 195.640641 
L 290.764512 195.640641 
z
" clip-path="url(#pca4546073c)" style="fill: #4682b4; opacity: 0.85"/>
   </g>
   <g id="patch_83">
    <path d="M 293.447206 42572.587705 
L 296.1299 42572.587705 
L 296.1299 197.538127 
L 293.447206 197.538127 
z
" clip-path="url(#pca4546073c)" style="fill: #4682b4; opacity: 0.85"/>
   </g>
   <g id="patch_84">
    <path d="M 296.1299 42572.587705 
L 298.812594 42572.587705 
L 298.812594 191.606385 
L 296.1299 191.606385 
z
" clip-path="url(#pca4546073c)" style="fill: #4682b4; opacity: 0.85"/>
   </g>
   <g id="patch_85">
    <path d="M 298.812594 42572.587705 
L 301.495288 42572.587705 
L 301.495288 199.101108 
L 298.812594 199.101108 
z
" clip-path="url(#pca4546073c)" style="fill: #4682b4; opacity: 0.85"/>
   </g>
   <g id="patch_86">
    <path d="M 301.495288 42572.587705 
L 304.177982 42572.587705 
L 304.177982 206.325984 
L 301.495288 206.325984 
z
" clip-path="url(#pca4546073c)" style="fill: #4682b4; opacity: 0.85"/>
   </g>
   <g id="patch_87">
    <path d="M 304.177982 42572.587705 
L 306.860676 42572.587705 
L 306.860676 210.856892 
L 304.177982 210.856892 
z
" clip-path="url(#pca4546073c)" style="fill: #4682b4; opacity: 0.85"/>
   </g>
   <g id="patch_88">
    <path d="M 306.860676 42572.587705 
L 309.54337 42572.587705 
L 309.54337 211.913423 
L 306.860676 211.913423 
z
" clip-path="url(#pca4546073c)" style="fill: #4682b4; opacity: 0.85"/>
   </g>
   <g id="patch_89">
    <path d="M 309.54337 42572.587705 
L 312.226064 42572.587705 
L 312.226064 221.721695 
L 309.54337 221.721695 
z
" clip-path="url(#pca4546073c)" style="fill: #4682b4; opacity: 0.85"/>
   </g>
   <g id="patch_90">
    <path d="M 312.226064 42572.587705 
L 314.908758 42572.587705 
L 314.908758 219.959957 
L 312.226064 219.959957 
z
" clip-path="url(#pca4546073c)" style="fill: #4682b4; opacity: 0.85"/>
   </g>
   <g id="patch_91">
    <path d="M 314.908758 42572.587705 
L 317.591452 42572.587705 
L 317.591452 223.669207 
L 314.908758 223.669207 
z
" clip-path="url(#pca4546073c)" style="fill: #4682b4; opacity: 0.85"/>
   </g>
   <g id="patch_92">
    <path d="M 317.591452 42572.587705 
L 320.274146 42572.587705 
L 320.274146 243.976245 
L 317.591452 243.976245 
z
" clip-path="url(#pca4546073c)" style="fill: #4682b4; opacity: 0.85"/>
   </g>
   <g id="patch_93">
    <path d="M 320.274146 42572.587705 
L 322.95684 42572.587705 
L 322.95684 251.470969 
L 320.274146 251.470969 
z
" clip-path="url(#pca4546073c)" style="fill: #4682b4; opacity: 0.85"/>
   </g>
   <g id="patch_94">
    <path d="M 322.95684 42572.587705 
L 325.639534 42572.587705 
L 325.639534 264.283284 
L 322.95684 264.283284 
z
" clip-path="url(#pca4546073c)" style="fill: #4682b4; opacity: 0.85"/>
   </g>
   <g id="patch_95">
    <path d="M 325.639534 42572.587705 
L 328.322228 42572.587705 
L 328.322228 251.470969 
L 325.639534 251.470969 
z
" clip-path="url(#pca4546073c)" style="fill: #4682b4; opacity: 0.85"/>
   </g>
   <g id="patch_96">
    <path d="M 328.322228 42572.587705 
L 331.004922 42572.587705 
L 331.004922 264.283284 
L 328.322228 264.283284 
z
" clip-path="url(#pca4546073c)" style="fill: #4682b4; opacity: 0.85"/>
   </g>
   <g id="patch_97">
    <path d="M 331.004922 42572.587705 
L 333.687616 42572.587705 
L 333.687616 251.470969 
L 331.004922 251.470969 
z
" clip-path="url(#pca4546073c)" style="fill: #4682b4; opacity: 0.85"/>
   </g>
   <g id="patch_98">
    <path d="M 333.687616 42572.587705 
L 336.37031 42572.587705 
L 336.37031 42572.587705 
L 333.687616 42572.587705 
z
" clip-path="url(#pca4546073c)" style="fill: #4682b4; opacity: 0.85"/>
   </g>
   <g id="patch_99">
    <path d="M 336.37031 42572.587705 
L 339.053004 42572.587705 
L 339.053004 251.470969 
L 336.37031 251.470969 
z
" clip-path="url(#pca4546073c)" style="fill: #4682b4; opacity: 0.85"/>
   </g>
   <g id="patch_100">
    <path d="M 339.053004 42572.587705 
L 341.735698 42572.587705 
L 341.735698 264.283284 
L 339.053004 264.283284 
z
" clip-path="url(#pca4546073c)" style="fill: #4682b4; opacity: 0.85"/>
   </g>
   <g id="patch_101">
    <path d="M 341.735698 42572.587705 
L 344.418392 42572.587705 
L 344.418392 42572.587705 
L 341.735698 42572.587705 
z
" clip-path="url(#pca4546073c)" style="fill: #4682b4; opacity: 0.85"/>
   </g>
   <g id="patch_102">
    <path d="M 344.418392 42572.587705 
L 347.101086 42572.587705 
L 347.101086 42572.587705 
L 344.418392 42572.587705 
z
" clip-path="url(#pca4546073c)" style="fill: #4682b4; opacity: 0.85"/>
   </g>
   <g id="patch_103">
    <path d="M 347.101086 42572.587705 
L 349.78378 42572.587705 
L 349.78378 264.283284 
L 347.101086 264.283284 
z
" clip-path="url(#pca4546073c)" style="fill: #4682b4; opacity: 0.85"/>
   </g>
   <g id="patch_104">
    <path d="M 349.78378 42572.587705 
L 352.466474 42572.587705 
L 352.466474 264.283284 
L 349.78378 264.283284 
z
" clip-path="url(#pca4546073c)" style="fill: #4682b4; opacity: 0.85"/>
   </g>
   <g id="patch_105">
    <path d="M 352.466474 42572.587705 
L 355.149168 42572.587705 
L 355.149168 264.283284 
L 352.466474 264.283284 
z
" clip-path="url(#pca4546073c)" style="fill: #4682b4; opacity: 0.85"/>
   </g>
   <g id="patch_106">
    <path d="M 355.149168 42572.587705 
L 357.831862 42572.587705 
L 357.831862 264.283284 
L 355.149168 264.283284 
z
" clip-path="url(#pca4546073c)" style="fill: #4682b4; opacity: 0.85"/>
   </g>
   <g id="patch_107">
    <path d="M 357.831862 42572.587705 
L 360.514556 42572.587705 
L 360.514556 42572.587705 
L 357.831862 42572.587705 
z
" clip-path="url(#pca4546073c)" style="fill: #4682b4; opacity: 0.85"/>
   </g>
   <g id="patch_108">
    <path d="M 360.514556 42572.587705 
L 363.19725 42572.587705 
L 363.19725 42572.587705 
L 360.514556 42572.587705 
z
" clip-path="url(#pca4546073c)" style="fill: #4682b4; opacity: 0.85"/>
   </g>
   <g id="patch_109">
    <path d="M 363.19725 42572.587705 
L 365.879944 42572.587705 
L 365.879944 42572.587705 
L 363.19725 42572.587705 
z
" clip-path="url(#pca4546073c)" style="fill: #4682b4; opacity: 0.85"/>
   </g>
   <g id="patch_110">
    <path d="M 365.879944 42572.587705 
L 368.562638 42572.587705 
L 368.562638 42572.587705 
L 365.879944 42572.587705 
z
" clip-path="url(#pca4546073c)" style="fill: #4682b4; opacity: 0.85"/>
   </g>
   <g id="patch_111">
    <path d="M 368.562638 42572.587705 
L 371.245332 42572.587705 
L 371.245332 42572.587705 
L 368.562638 42572.587705 
z
" clip-path="url(#pca4546073c)" style="fill: #4682b4; opacity: 0.85"/>
   </g>
   <g id="patch_112">
    <path d="M 371.245332 42572.587705 
L 373.928026 42572.587705 
L 373.928026 42572.587705 
L 371.245332 42572.587705 
z
" clip-path="url(#pca4546073c)" style="fill: #4682b4; opacity: 0.85"/>
   </g>
   <g id="patch_113">
    <path d="M 373.928026 42572.587705 
L 376.610721 42572.587705 
L 376.610721 264.283284 
L 373.928026 264.283284 
z
" clip-path="url(#pca4546073c)" style="fill: #4682b4; opacity: 0.85"/>
   </g>
   <g id="patch_114">
    <path d="M 376.610721 42572.587705 
L 379.293415 42572.587705 
L 379.293415 42572.587705 
L 376.610721 42572.587705 
z
" clip-path="url(#pca4546073c)" style="fill: #4682b4; opacity: 0.85"/>
   </g>
   <g id="patch_115">
    <path d="M 379.293415 42572.587705 
L 381.976109 42572.587705 
L 381.976109 42572.587705 
L 379.293415 42572.587705 
z
" clip-path="url(#pca4546073c)" style="fill: #4682b4; opacity: 0.85"/>
   </g>
   <g id="patch_116">
    <path d="M 381.976109 42572.587705 
L 384.658803 42572.587705 
L 384.658803 42572.587705 
L 381.976109 42572.587705 
z
" clip-path="url(#pca4546073c)" style="fill: #4682b4; opacity: 0.85"/>
   </g>
   <g id="patch_117">
    <path d="M 384.658803 42572.587705 
L 387.341497 42572.587705 
L 387.341497 42572.587705 
L 384.658803 42572.587705 
z
" clip-path="url(#pca4546073c)" style="fill: #4682b4; opacity: 0.85"/>
   </g>
   <g id="patch_118">
    <path d="M 387.341497 42572.587705 
L 390.024191 42572.587705 
L 390.024191 42572.587705 
L 387.341497 42572.587705 
z
" clip-path="url(#pca4546073c)" style="fill: #4682b4; opacity: 0.85"/>
   </g>
   <g id="patch_119">
    <path d="M 390.024191 42572.587705 
L 392.706885 42572.587705 
L 392.706885 42572.587705 
L 390.024191 42572.587705 
z
" clip-path="url(#pca4546073c)" style="fill: #4682b4; opacity: 0.85"/>
   </g>
   <g id="patch_120">
    <path d="M 392.706885 42572.587705 
L 395.389579 42572.587705 
L 395.389579 264.283284 
L 392.706885 264.283284 
z
" clip-path="url(#pca4546073c)" style="fill: #4682b4; opacity: 0.85"/>
   </g>
   <g id="patch_121">
    <path d="M 395.389579 42572.587705 
L 398.072273 42572.587705 
L 398.072273 42572.587705 
L 395.389579 42572.587705 
z
" clip-path="url(#pca4546073c)" style="fill: #4682b4; opacity: 0.85"/>
   </g>
   <g id="matplotlib.axis_1">
    <g id="xtick_1">
     <g id="line2d_1">
      <defs>
       <path id="m2cc08d70f3" d="M 0 0 
L 0 3.5 
" style="stroke: #000000; stroke-width: 0.8"/>
      </defs>
      <g>
       <use xlink:href="#m2cc08d70f3" x="114.30286" y="276.379284" style="stroke: #000000; stroke-width: 0.8"/>
      </g>
     </g>
     <g id="text_1">
      <!-- $\mathdefault{10^{-6}}$ -->
      <g transform="translate(102.55286 290.977721) scale(0.1 -0.1)">
       <defs>
        <path id="DejaVuSans-31" d="M 794 531 
L 1825 531 
L 1825 4091 
L 703 3866 
L 703 4441 
L 1819 4666 
L 2450 4666 
L 2450 531 
L 3481 531 
L 3481 0 
L 794 0 
L 794 531 
z
" transform="scale(0.015625)"/>
        <path id="DejaVuSans-30" d="M 2034 4250 
Q 1547 4250 1301 3770 
Q 1056 3291 1056 2328 
Q 1056 1369 1301 889 
Q 1547 409 2034 409 
Q 2525 409 2770 889 
Q 3016 1369 3016 2328 
Q 3016 3291 2770 3770 
Q 2525 4250 2034 4250 
z
M 2034 4750 
Q 2819 4750 3233 4129 
Q 3647 3509 3647 2328 
Q 3647 1150 3233 529 
Q 2819 -91 2034 -91 
Q 1250 -91 836 529 
Q 422 1150 422 2328 
Q 422 3509 836 4129 
Q 1250 4750 2034 4750 
z
" transform="scale(0.015625)"/>
        <path id="DejaVuSans-2212" d="M 678 2272 
L 4684 2272 
L 4684 1741 
L 678 1741 
L 678 2272 
z
" transform="scale(0.015625)"/>
        <path id="DejaVuSans-36" d="M 2113 2584 
Q 1688 2584 1439 2293 
Q 1191 2003 1191 1497 
Q 1191 994 1439 701 
Q 1688 409 2113 409 
Q 2538 409 2786 701 
Q 3034 994 3034 1497 
Q 3034 2003 2786 2293 
Q 2538 2584 2113 2584 
z
M 3366 4563 
L 3366 3988 
Q 3128 4100 2886 4159 
Q 2644 4219 2406 4219 
Q 1781 4219 1451 3797 
Q 1122 3375 1075 2522 
Q 1259 2794 1537 2939 
Q 1816 3084 2150 3084 
Q 2853 3084 3261 2657 
Q 3669 2231 3669 1497 
Q 3669 778 3244 343 
Q 2819 -91 2113 -91 
Q 1303 -91 875 529 
Q 447 1150 447 2328 
Q 447 3434 972 4092 
Q 1497 4750 2381 4750 
Q 2619 4750 2861 4703 
Q 3103 4656 3366 4563 
z
" transform="scale(0.015625)"/>
       </defs>
       <use xlink:href="#DejaVuSans-31" transform="translate(0 0.765625)"/>
       <use xlink:href="#DejaVuSans-30" transform="translate(63.623047 0.765625)"/>
       <use xlink:href="#DejaVuSans-2212" transform="translate(128.203125 39.046875) scale(0.7)"/>
       <use xlink:href="#DejaVuSans-36" transform="translate(186.855469 39.046875) scale(0.7)"/>
      </g>
     </g>
    </g>
    <g id="xtick_2">
     <g id="line2d_2">
      <g>
       <use xlink:href="#m2cc08d70f3" x="185.245213" y="276.379284" style="stroke: #000000; stroke-width: 0.8"/>
      </g>
     </g>
     <g id="text_2">
      <!-- $\mathdefault{10^{-4}}$ -->
      <g transform="translate(173.495213 290.977721) scale(0.1 -0.1)">
       <defs>
        <path id="DejaVuSans-34" d="M 2419 4116 
L 825 1625 
L 2419 1625 
L 2419 4116 
z
M 2253 4666 
L 3047 4666 
L 3047 1625 
L 3713 1625 
L 3713 1100 
L 3047 1100 
L 3047 0 
L 2419 0 
L 2419 1100 
L 313 1100 
L 313 1709 
L 2253 4666 
z
" transform="scale(0.015625)"/>
       </defs>
       <use xlink:href="#DejaVuSans-31" transform="translate(0 0.684375)"/>
       <use xlink:href="#DejaVuSans-30" transform="translate(63.623047 0.684375)"/>
       <use xlink:href="#DejaVuSans-2212" transform="translate(128.203125 38.965625) scale(0.7)"/>
       <use xlink:href="#DejaVuSans-34" transform="translate(186.855469 38.965625) scale(0.7)"/>
      </g>
     </g>
    </g>
    <g id="xtick_3">
     <g id="line2d_3">
      <g>
       <use xlink:href="#m2cc08d70f3" x="256.187566" y="276.379284" style="stroke: #000000; stroke-width: 0.8"/>
      </g>
     </g>
     <g id="text_3">
      <!-- $\mathdefault{10^{-2}}$ -->
      <g transform="translate(244.437566 290.977721) scale(0.1 -0.1)">
       <defs>
        <path id="DejaVuSans-32" d="M 1228 531 
L 3431 531 
L 3431 0 
L 469 0 
L 469 531 
Q 828 903 1448 1529 
Q 2069 2156 2228 2338 
Q 2531 2678 2651 2914 
Q 2772 3150 2772 3378 
Q 2772 3750 2511 3984 
Q 2250 4219 1831 4219 
Q 1534 4219 1204 4116 
Q 875 4013 500 3803 
L 500 4441 
Q 881 4594 1212 4672 
Q 1544 4750 1819 4750 
Q 2544 4750 2975 4387 
Q 3406 4025 3406 3419 
Q 3406 3131 3298 2873 
Q 3191 2616 2906 2266 
Q 2828 2175 2409 1742 
Q 1991 1309 1228 531 
z
" transform="scale(0.015625)"/>
       </defs>
       <use xlink:href="#DejaVuSans-31" transform="translate(0 0.765625)"/>
       <use xlink:href="#DejaVuSans-30" transform="translate(63.623047 0.765625)"/>
       <use xlink:href="#DejaVuSans-2212" transform="translate(128.203125 39.046875) scale(0.7)"/>
       <use xlink:href="#DejaVuSans-32" transform="translate(186.855469 39.046875) scale(0.7)"/>
      </g>
     </g>
    </g>
    <g id="xtick_4">
     <g id="line2d_4">
      <g>
       <use xlink:href="#m2cc08d70f3" x="327.12992" y="276.379284" style="stroke: #000000; stroke-width: 0.8"/>
      </g>
     </g>
     <g id="text_4">
      <!-- $\mathdefault{10^{0}}$ -->
      <g transform="translate(318.32992 290.977721) scale(0.1 -0.1)">
       <use xlink:href="#DejaVuSans-31" transform="translate(0 0.765625)"/>
       <use xlink:href="#DejaVuSans-30" transform="translate(63.623047 0.765625)"/>
       <use xlink:href="#DejaVuSans-30" transform="translate(128.203125 39.046875) scale(0.7)"/>
      </g>
     </g>
    </g>
    <g id="xtick_5">
     <g id="line2d_5">
      <g>
       <use xlink:href="#m2cc08d70f3" x="398.072273" y="276.379284" style="stroke: #000000; stroke-width: 0.8"/>
      </g>
     </g>
     <g id="text_5">
      <!-- $\mathdefault{10^{2}}$ -->
      <g transform="translate(389.272273 290.977721) scale(0.1 -0.1)">
       <use xlink:href="#DejaVuSans-31" transform="translate(0 0.765625)"/>
       <use xlink:href="#DejaVuSans-30" transform="translate(63.623047 0.765625)"/>
       <use xlink:href="#DejaVuSans-32" transform="translate(128.203125 39.046875) scale(0.7)"/>
      </g>
     </g>
    </g>
    <g id="xtick_6">
     <g id="line2d_6">
      <defs>
       <path id="mddcc840519" d="M 0 0 
L 0 2 
" style="stroke: #000000; stroke-width: 0.6"/>
      </defs>
      <g>
       <use xlink:href="#mddcc840519" x="60.284559" y="276.379284" style="stroke: #000000; stroke-width: 0.6"/>
      </g>
     </g>
    </g>
    <g id="xtick_7">
     <g id="line2d_7">
      <g>
       <use xlink:href="#mddcc840519" x="64.716283" y="276.379284" style="stroke: #000000; stroke-width: 0.6"/>
      </g>
     </g>
    </g>
    <g id="xtick_8">
     <g id="line2d_8">
      <g>
       <use xlink:href="#mddcc840519" x="68.153795" y="276.379284" style="stroke: #000000; stroke-width: 0.6"/>
      </g>
     </g>
    </g>
    <g id="xtick_9">
     <g id="line2d_9">
      <g>
       <use xlink:href="#mddcc840519" x="70.962447" y="276.379284" style="stroke: #000000; stroke-width: 0.6"/>
      </g>
     </g>
    </g>
    <g id="xtick_10">
     <g id="line2d_10">
      <g>
       <use xlink:href="#mddcc840519" x="73.337129" y="276.379284" style="stroke: #000000; stroke-width: 0.6"/>
      </g>
     </g>
    </g>
    <g id="xtick_11">
     <g id="line2d_11">
      <g>
       <use xlink:href="#mddcc840519" x="75.394171" y="276.379284" style="stroke: #000000; stroke-width: 0.6"/>
      </g>
     </g>
    </g>
    <g id="xtick_12">
     <g id="line2d_12">
      <g>
       <use xlink:href="#mddcc840519" x="77.208611" y="276.379284" style="stroke: #000000; stroke-width: 0.6"/>
      </g>
     </g>
    </g>
    <g id="xtick_13">
     <g id="line2d_13">
      <g>
       <use xlink:href="#mddcc840519" x="78.831683" y="276.379284" style="stroke: #000000; stroke-width: 0.6"/>
      </g>
     </g>
     <g id="text_6">
      <!-- $\mathdefault{10^{-7}}$ -->
      <g transform="translate(67.081683 289.377721) scale(0.1 -0.1)">
       <defs>
        <path id="DejaVuSans-37" d="M 525 4666 
L 3525 4666 
L 3525 4397 
L 1831 0 
L 1172 0 
L 2766 4134 
L 525 4134 
L 525 4666 
z
" transform="scale(0.015625)"/>
       </defs>
       <use xlink:href="#DejaVuSans-31" transform="translate(0 0.684375)"/>
       <use xlink:href="#DejaVuSans-30" transform="translate(63.623047 0.684375)"/>
       <use xlink:href="#DejaVuSans-2212" transform="translate(128.203125 38.965625) scale(0.7)"/>
       <use xlink:href="#DejaVuSans-37" transform="translate(186.855469 38.965625) scale(0.7)"/>
      </g>
     </g>
    </g>
    <g id="xtick_14">
     <g id="line2d_14">
      <g>
       <use xlink:href="#mddcc840519" x="89.509572" y="276.379284" style="stroke: #000000; stroke-width: 0.6"/>
      </g>
     </g>
    </g>
    <g id="xtick_15">
     <g id="line2d_15">
      <g>
       <use xlink:href="#mddcc840519" x="95.755736" y="276.379284" style="stroke: #000000; stroke-width: 0.6"/>
      </g>
     </g>
    </g>
    <g id="xtick_16">
     <g id="line2d_16">
      <g>
       <use xlink:href="#mddcc840519" x="100.18746" y="276.379284" style="stroke: #000000; stroke-width: 0.6"/>
      </g>
     </g>
    </g>
    <g id="xtick_17">
     <g id="line2d_17">
      <g>
       <use xlink:href="#mddcc840519" x="103.624972" y="276.379284" style="stroke: #000000; stroke-width: 0.6"/>
      </g>
     </g>
    </g>
    <g id="xtick_18">
     <g id="line2d_18">
      <g>
       <use xlink:href="#mddcc840519" x="106.433624" y="276.379284" style="stroke: #000000; stroke-width: 0.6"/>
      </g>
     </g>
    </g>
    <g id="xtick_19">
     <g id="line2d_19">
      <g>
       <use xlink:href="#mddcc840519" x="108.808305" y="276.379284" style="stroke: #000000; stroke-width: 0.6"/>
      </g>
     </g>
    </g>
    <g id="xtick_20">
     <g id="line2d_20">
      <g>
       <use xlink:href="#mddcc840519" x="110.865348" y="276.379284" style="stroke: #000000; stroke-width: 0.6"/>
      </g>
     </g>
    </g>
    <g id="xtick_21">
     <g id="line2d_21">
      <g>
       <use xlink:href="#mddcc840519" x="112.679788" y="276.379284" style="stroke: #000000; stroke-width: 0.6"/>
      </g>
     </g>
    </g>
    <g id="xtick_22">
     <g id="line2d_22">
      <g>
       <use xlink:href="#mddcc840519" x="124.980748" y="276.379284" style="stroke: #000000; stroke-width: 0.6"/>
      </g>
     </g>
    </g>
    <g id="xtick_23">
     <g id="line2d_23">
      <g>
       <use xlink:href="#mddcc840519" x="131.226912" y="276.379284" style="stroke: #000000; stroke-width: 0.6"/>
      </g>
     </g>
    </g>
    <g id="xtick_24">
     <g id="line2d_24">
      <g>
       <use xlink:href="#mddcc840519" x="135.658636" y="276.379284" style="stroke: #000000; stroke-width: 0.6"/>
      </g>
     </g>
    </g>
    <g id="xtick_25">
     <g id="line2d_25">
      <g>
       <use xlink:href="#mddcc840519" x="139.096148" y="276.379284" style="stroke: #000000; stroke-width: 0.6"/>
      </g>
     </g>
    </g>
    <g id="xtick_26">
     <g id="line2d_26">
      <g>
       <use xlink:href="#mddcc840519" x="141.9048" y="276.379284" style="stroke: #000000; stroke-width: 0.6"/>
      </g>
     </g>
    </g>
    <g id="xtick_27">
     <g id="line2d_27">
      <g>
       <use xlink:href="#mddcc840519" x="144.279482" y="276.379284" style="stroke: #000000; stroke-width: 0.6"/>
      </g>
     </g>
    </g>
    <g id="xtick_28">
     <g id="line2d_28">
      <g>
       <use xlink:href="#mddcc840519" x="146.336524" y="276.379284" style="stroke: #000000; stroke-width: 0.6"/>
      </g>
     </g>
    </g>
    <g id="xtick_29">
     <g id="line2d_29">
      <g>
       <use xlink:href="#mddcc840519" x="148.150965" y="276.379284" style="stroke: #000000; stroke-width: 0.6"/>
      </g>
     </g>
    </g>
    <g id="xtick_30">
     <g id="line2d_30">
      <g>
       <use xlink:href="#mddcc840519" x="149.774037" y="276.379284" style="stroke: #000000; stroke-width: 0.6"/>
      </g>
     </g>
     <g id="text_7">
      <!-- $\mathdefault{10^{-5}}$ -->
      <g transform="translate(138.024037 289.377721) scale(0.1 -0.1)">
       <defs>
        <path id="DejaVuSans-35" d="M 691 4666 
L 3169 4666 
L 3169 4134 
L 1269 4134 
L 1269 2991 
Q 1406 3038 1543 3061 
Q 1681 3084 1819 3084 
Q 2600 3084 3056 2656 
Q 3513 2228 3513 1497 
Q 3513 744 3044 326 
Q 2575 -91 1722 -91 
Q 1428 -91 1123 -41 
Q 819 9 494 109 
L 494 744 
Q 775 591 1075 516 
Q 1375 441 1709 441 
Q 2250 441 2565 725 
Q 2881 1009 2881 1497 
Q 2881 1984 2565 2268 
Q 2250 2553 1709 2553 
Q 1456 2553 1204 2497 
Q 953 2441 691 2322 
L 691 4666 
z
" transform="scale(0.015625)"/>
       </defs>
       <use xlink:href="#DejaVuSans-31" transform="translate(0 0.684375)"/>
       <use xlink:href="#DejaVuSans-30" transform="translate(63.623047 0.684375)"/>
       <use xlink:href="#DejaVuSans-2212" transform="translate(128.203125 38.965625) scale(0.7)"/>
       <use xlink:href="#DejaVuSans-35" transform="translate(186.855469 38.965625) scale(0.7)"/>
      </g>
     </g>
    </g>
    <g id="xtick_31">
     <g id="line2d_31">
      <g>
       <use xlink:href="#mddcc840519" x="160.451925" y="276.379284" style="stroke: #000000; stroke-width: 0.6"/>
      </g>
     </g>
    </g>
    <g id="xtick_32">
     <g id="line2d_32">
      <g>
       <use xlink:href="#mddcc840519" x="166.698089" y="276.379284" style="stroke: #000000; stroke-width: 0.6"/>
      </g>
     </g>
    </g>
    <g id="xtick_33">
     <g id="line2d_33">
      <g>
       <use xlink:href="#mddcc840519" x="171.129813" y="276.379284" style="stroke: #000000; stroke-width: 0.6"/>
      </g>
     </g>
    </g>
    <g id="xtick_34">
     <g id="line2d_34">
      <g>
       <use xlink:href="#mddcc840519" x="174.567325" y="276.379284" style="stroke: #000000; stroke-width: 0.6"/>
      </g>
     </g>
    </g>
    <g id="xtick_35">
     <g id="line2d_35">
      <g>
       <use xlink:href="#mddcc840519" x="177.375977" y="276.379284" style="stroke: #000000; stroke-width: 0.6"/>
      </g>
     </g>
    </g>
    <g id="xtick_36">
     <g id="line2d_36">
      <g>
       <use xlink:href="#mddcc840519" x="179.750658" y="276.379284" style="stroke: #000000; stroke-width: 0.6"/>
      </g>
     </g>
    </g>
    <g id="xtick_37">
     <g id="line2d_37">
      <g>
       <use xlink:href="#mddcc840519" x="181.807701" y="276.379284" style="stroke: #000000; stroke-width: 0.6"/>
      </g>
     </g>
    </g>
    <g id="xtick_38">
     <g id="line2d_38">
      <g>
       <use xlink:href="#mddcc840519" x="183.622141" y="276.379284" style="stroke: #000000; stroke-width: 0.6"/>
      </g>
     </g>
    </g>
    <g id="xtick_39">
     <g id="line2d_39">
      <g>
       <use xlink:href="#mddcc840519" x="195.923101" y="276.379284" style="stroke: #000000; stroke-width: 0.6"/>
      </g>
     </g>
    </g>
    <g id="xtick_40">
     <g id="line2d_40">
      <g>
       <use xlink:href="#mddcc840519" x="202.169265" y="276.379284" style="stroke: #000000; stroke-width: 0.6"/>
      </g>
     </g>
    </g>
    <g id="xtick_41">
     <g id="line2d_41">
      <g>
       <use xlink:href="#mddcc840519" x="206.600989" y="276.379284" style="stroke: #000000; stroke-width: 0.6"/>
      </g>
     </g>
    </g>
    <g id="xtick_42">
     <g id="line2d_42">
      <g>
       <use xlink:href="#mddcc840519" x="210.038502" y="276.379284" style="stroke: #000000; stroke-width: 0.6"/>
      </g>
     </g>
    </g>
    <g id="xtick_43">
     <g id="line2d_43">
      <g>
       <use xlink:href="#mddcc840519" x="212.847154" y="276.379284" style="stroke: #000000; stroke-width: 0.6"/>
      </g>
     </g>
    </g>
    <g id="xtick_44">
     <g id="line2d_44">
      <g>
       <use xlink:href="#mddcc840519" x="215.221835" y="276.379284" style="stroke: #000000; stroke-width: 0.6"/>
      </g>
     </g>
    </g>
    <g id="xtick_45">
     <g id="line2d_45">
      <g>
       <use xlink:href="#mddcc840519" x="217.278878" y="276.379284" style="stroke: #000000; stroke-width: 0.6"/>
      </g>
     </g>
    </g>
    <g id="xtick_46">
     <g id="line2d_46">
      <g>
       <use xlink:href="#mddcc840519" x="219.093318" y="276.379284" style="stroke: #000000; stroke-width: 0.6"/>
      </g>
     </g>
    </g>
    <g id="xtick_47">
     <g id="line2d_47">
      <g>
       <use xlink:href="#mddcc840519" x="220.71639" y="276.379284" style="stroke: #000000; stroke-width: 0.6"/>
      </g>
     </g>
     <g id="text_8">
      <!-- $\mathdefault{10^{-3}}$ -->
      <g transform="translate(208.96639 289.377721) scale(0.1 -0.1)">
       <defs>
        <path id="DejaVuSans-33" d="M 2597 2516 
Q 3050 2419 3304 2112 
Q 3559 1806 3559 1356 
Q 3559 666 3084 287 
Q 2609 -91 1734 -91 
Q 1441 -91 1130 -33 
Q 819 25 488 141 
L 488 750 
Q 750 597 1062 519 
Q 1375 441 1716 441 
Q 2309 441 2620 675 
Q 2931 909 2931 1356 
Q 2931 1769 2642 2001 
Q 2353 2234 1838 2234 
L 1294 2234 
L 1294 2753 
L 1863 2753 
Q 2328 2753 2575 2939 
Q 2822 3125 2822 3475 
Q 2822 3834 2567 4026 
Q 2313 4219 1838 4219 
Q 1578 4219 1281 4162 
Q 984 4106 628 3988 
L 628 4550 
Q 988 4650 1302 4700 
Q 1616 4750 1894 4750 
Q 2613 4750 3031 4423 
Q 3450 4097 3450 3541 
Q 3450 3153 3228 2886 
Q 3006 2619 2597 2516 
z
" transform="scale(0.015625)"/>
       </defs>
       <use xlink:href="#DejaVuSans-31" transform="translate(0 0.765625)"/>
       <use xlink:href="#DejaVuSans-30" transform="translate(63.623047 0.765625)"/>
       <use xlink:href="#DejaVuSans-2212" transform="translate(128.203125 39.046875) scale(0.7)"/>
       <use xlink:href="#DejaVuSans-33" transform="translate(186.855469 39.046875) scale(0.7)"/>
      </g>
     </g>
    </g>
    <g id="xtick_48">
     <g id="line2d_48">
      <g>
       <use xlink:href="#mddcc840519" x="231.394278" y="276.379284" style="stroke: #000000; stroke-width: 0.6"/>
      </g>
     </g>
    </g>
    <g id="xtick_49">
     <g id="line2d_49">
      <g>
       <use xlink:href="#mddcc840519" x="237.640442" y="276.379284" style="stroke: #000000; stroke-width: 0.6"/>
      </g>
     </g>
    </g>
    <g id="xtick_50">
     <g id="line2d_50">
      <g>
       <use xlink:href="#mddcc840519" x="242.072166" y="276.379284" style="stroke: #000000; stroke-width: 0.6"/>
      </g>
     </g>
    </g>
    <g id="xtick_51">
     <g id="line2d_51">
      <g>
       <use xlink:href="#mddcc840519" x="245.509678" y="276.379284" style="stroke: #000000; stroke-width: 0.6"/>
      </g>
     </g>
    </g>
    <g id="xtick_52">
     <g id="line2d_52">
      <g>
       <use xlink:href="#mddcc840519" x="248.31833" y="276.379284" style="stroke: #000000; stroke-width: 0.6"/>
      </g>
     </g>
    </g>
    <g id="xtick_53">
     <g id="line2d_53">
      <g>
       <use xlink:href="#mddcc840519" x="250.693012" y="276.379284" style="stroke: #000000; stroke-width: 0.6"/>
      </g>
     </g>
    </g>
    <g id="xtick_54">
     <g id="line2d_54">
      <g>
       <use xlink:href="#mddcc840519" x="252.750054" y="276.379284" style="stroke: #000000; stroke-width: 0.6"/>
      </g>
     </g>
    </g>
    <g id="xtick_55">
     <g id="line2d_55">
      <g>
       <use xlink:href="#mddcc840519" x="254.564494" y="276.379284" style="stroke: #000000; stroke-width: 0.6"/>
      </g>
     </g>
    </g>
    <g id="xtick_56">
     <g id="line2d_56">
      <g>
       <use xlink:href="#mddcc840519" x="266.865454" y="276.379284" style="stroke: #000000; stroke-width: 0.6"/>
      </g>
     </g>
    </g>
    <g id="xtick_57">
     <g id="line2d_57">
      <g>
       <use xlink:href="#mddcc840519" x="273.111619" y="276.379284" style="stroke: #000000; stroke-width: 0.6"/>
      </g>
     </g>
    </g>
    <g id="xtick_58">
     <g id="line2d_58">
      <g>
       <use xlink:href="#mddcc840519" x="277.543343" y="276.379284" style="stroke: #000000; stroke-width: 0.6"/>
      </g>
     </g>
    </g>
    <g id="xtick_59">
     <g id="line2d_59">
      <g>
       <use xlink:href="#mddcc840519" x="280.980855" y="276.379284" style="stroke: #000000; stroke-width: 0.6"/>
      </g>
     </g>
    </g>
    <g id="xtick_60">
     <g id="line2d_60">
      <g>
       <use xlink:href="#mddcc840519" x="283.789507" y="276.379284" style="stroke: #000000; stroke-width: 0.6"/>
      </g>
     </g>
    </g>
    <g id="xtick_61">
     <g id="line2d_61">
      <g>
       <use xlink:href="#mddcc840519" x="286.164188" y="276.379284" style="stroke: #000000; stroke-width: 0.6"/>
      </g>
     </g>
    </g>
    <g id="xtick_62">
     <g id="line2d_62">
      <g>
       <use xlink:href="#mddcc840519" x="288.221231" y="276.379284" style="stroke: #000000; stroke-width: 0.6"/>
      </g>
     </g>
    </g>
    <g id="xtick_63">
     <g id="line2d_63">
      <g>
       <use xlink:href="#mddcc840519" x="290.035671" y="276.379284" style="stroke: #000000; stroke-width: 0.6"/>
      </g>
     </g>
    </g>
    <g id="xtick_64">
     <g id="line2d_64">
      <g>
       <use xlink:href="#mddcc840519" x="291.658743" y="276.379284" style="stroke: #000000; stroke-width: 0.6"/>
      </g>
     </g>
     <g id="text_9">
      <!-- $\mathdefault{10^{-1}}$ -->
      <g transform="translate(279.908743 289.377721) scale(0.1 -0.1)">
       <use xlink:href="#DejaVuSans-31" transform="translate(0 0.684375)"/>
       <use xlink:href="#DejaVuSans-30" transform="translate(63.623047 0.684375)"/>
       <use xlink:href="#DejaVuSans-2212" transform="translate(128.203125 38.965625) scale(0.7)"/>
       <use xlink:href="#DejaVuSans-31" transform="translate(186.855469 38.965625) scale(0.7)"/>
      </g>
     </g>
    </g>
    <g id="xtick_65">
     <g id="line2d_65">
      <g>
       <use xlink:href="#mddcc840519" x="302.336631" y="276.379284" style="stroke: #000000; stroke-width: 0.6"/>
      </g>
     </g>
    </g>
    <g id="xtick_66">
     <g id="line2d_66">
      <g>
       <use xlink:href="#mddcc840519" x="308.582795" y="276.379284" style="stroke: #000000; stroke-width: 0.6"/>
      </g>
     </g>
    </g>
    <g id="xtick_67">
     <g id="line2d_67">
      <g>
       <use xlink:href="#mddcc840519" x="313.014519" y="276.379284" style="stroke: #000000; stroke-width: 0.6"/>
      </g>
     </g>
    </g>
    <g id="xtick_68">
     <g id="line2d_68">
      <g>
       <use xlink:href="#mddcc840519" x="316.452031" y="276.379284" style="stroke: #000000; stroke-width: 0.6"/>
      </g>
     </g>
    </g>
    <g id="xtick_69">
     <g id="line2d_69">
      <g>
       <use xlink:href="#mddcc840519" x="319.260683" y="276.379284" style="stroke: #000000; stroke-width: 0.6"/>
      </g>
     </g>
    </g>
    <g id="xtick_70">
     <g id="line2d_70">
      <g>
       <use xlink:href="#mddcc840519" x="321.635365" y="276.379284" style="stroke: #000000; stroke-width: 0.6"/>
      </g>
     </g>
    </g>
    <g id="xtick_71">
     <g id="line2d_71">
      <g>
       <use xlink:href="#mddcc840519" x="323.692407" y="276.379284" style="stroke: #000000; stroke-width: 0.6"/>
      </g>
     </g>
    </g>
    <g id="xtick_72">
     <g id="line2d_72">
      <g>
       <use xlink:href="#mddcc840519" x="325.506848" y="276.379284" style="stroke: #000000; stroke-width: 0.6"/>
      </g>
     </g>
    </g>
    <g id="xtick_73">
     <g id="line2d_73">
      <g>
       <use xlink:href="#mddcc840519" x="337.807808" y="276.379284" style="stroke: #000000; stroke-width: 0.6"/>
      </g>
     </g>
    </g>
    <g id="xtick_74">
     <g id="line2d_74">
      <g>
       <use xlink:href="#mddcc840519" x="344.053972" y="276.379284" style="stroke: #000000; stroke-width: 0.6"/>
      </g>
     </g>
    </g>
    <g id="xtick_75">
     <g id="line2d_75">
      <g>
       <use xlink:href="#mddcc840519" x="348.485696" y="276.379284" style="stroke: #000000; stroke-width: 0.6"/>
      </g>
     </g>
    </g>
    <g id="xtick_76">
     <g id="line2d_76">
      <g>
       <use xlink:href="#mddcc840519" x="351.923208" y="276.379284" style="stroke: #000000; stroke-width: 0.6"/>
      </g>
     </g>
    </g>
    <g id="xtick_77">
     <g id="line2d_77">
      <g>
       <use xlink:href="#mddcc840519" x="354.73186" y="276.379284" style="stroke: #000000; stroke-width: 0.6"/>
      </g>
     </g>
    </g>
    <g id="xtick_78">
     <g id="line2d_78">
      <g>
       <use xlink:href="#mddcc840519" x="357.106541" y="276.379284" style="stroke: #000000; stroke-width: 0.6"/>
      </g>
     </g>
    </g>
    <g id="xtick_79">
     <g id="line2d_79">
      <g>
       <use xlink:href="#mddcc840519" x="359.163584" y="276.379284" style="stroke: #000000; stroke-width: 0.6"/>
      </g>
     </g>
    </g>
    <g id="xtick_80">
     <g id="line2d_80">
      <g>
       <use xlink:href="#mddcc840519" x="360.978024" y="276.379284" style="stroke: #000000; stroke-width: 0.6"/>
      </g>
     </g>
    </g>
    <g id="xtick_81">
     <g id="line2d_81">
      <g>
       <use xlink:href="#mddcc840519" x="362.601096" y="276.379284" style="stroke: #000000; stroke-width: 0.6"/>
      </g>
     </g>
     <g id="text_10">
      <!-- $\mathdefault{10^{1}}$ -->
      <g transform="translate(353.801096 289.377721) scale(0.1 -0.1)">
       <use xlink:href="#DejaVuSans-31" transform="translate(0 0.684375)"/>
       <use xlink:href="#DejaVuSans-30" transform="translate(63.623047 0.684375)"/>
       <use xlink:href="#DejaVuSans-31" transform="translate(128.203125 38.965625) scale(0.7)"/>
      </g>
     </g>
    </g>
    <g id="xtick_82">
     <g id="line2d_82">
      <g>
       <use xlink:href="#mddcc840519" x="373.278984" y="276.379284" style="stroke: #000000; stroke-width: 0.6"/>
      </g>
     </g>
    </g>
    <g id="xtick_83">
     <g id="line2d_83">
      <g>
       <use xlink:href="#mddcc840519" x="379.525148" y="276.379284" style="stroke: #000000; stroke-width: 0.6"/>
      </g>
     </g>
    </g>
    <g id="xtick_84">
     <g id="line2d_84">
      <g>
       <use xlink:href="#mddcc840519" x="383.956872" y="276.379284" style="stroke: #000000; stroke-width: 0.6"/>
      </g>
     </g>
    </g>
    <g id="xtick_85">
     <g id="line2d_85">
      <g>
       <use xlink:href="#mddcc840519" x="387.394385" y="276.379284" style="stroke: #000000; stroke-width: 0.6"/>
      </g>
     </g>
    </g>
    <g id="xtick_86">
     <g id="line2d_86">
      <g>
       <use xlink:href="#mddcc840519" x="390.203037" y="276.379284" style="stroke: #000000; stroke-width: 0.6"/>
      </g>
     </g>
    </g>
    <g id="xtick_87">
     <g id="line2d_87">
      <g>
       <use xlink:href="#mddcc840519" x="392.577718" y="276.379284" style="stroke: #000000; stroke-width: 0.6"/>
      </g>
     </g>
    </g>
    <g id="xtick_88">
     <g id="line2d_88">
      <g>
       <use xlink:href="#mddcc840519" x="394.634761" y="276.379284" style="stroke: #000000; stroke-width: 0.6"/>
      </g>
     </g>
    </g>
    <g id="xtick_89">
     <g id="line2d_89">
      <g>
       <use xlink:href="#mddcc840519" x="396.449201" y="276.379284" style="stroke: #000000; stroke-width: 0.6"/>
      </g>
     </g>
    </g>
    <g id="xtick_90">
     <g id="line2d_90">
      <g>
       <use xlink:href="#mddcc840519" x="408.750161" y="276.379284" style="stroke: #000000; stroke-width: 0.6"/>
      </g>
     </g>
    </g>
    <g id="text_11">
     <!-- Rayleigh quotient $\left[\left(\mathcal{F}^*\right)^{-1}\right]$ -->
     <g transform="translate(131.905 308.617409) scale(0.16 -0.16)">
      <defs>
       <path id="DejaVuSans-52" d="M 2841 2188 
Q 3044 2119 3236 1894 
Q 3428 1669 3622 1275 
L 4263 0 
L 3584 0 
L 2988 1197 
Q 2756 1666 2539 1819 
Q 2322 1972 1947 1972 
L 1259 1972 
L 1259 0 
L 628 0 
L 628 4666 
L 2053 4666 
Q 2853 4666 3247 4331 
Q 3641 3997 3641 3322 
Q 3641 2881 3436 2590 
Q 3231 2300 2841 2188 
z
M 1259 4147 
L 1259 2491 
L 2053 2491 
Q 2509 2491 2742 2702 
Q 2975 2913 2975 3322 
Q 2975 3731 2742 3939 
Q 2509 4147 2053 4147 
L 1259 4147 
z
" transform="scale(0.015625)"/>
       <path id="DejaVuSans-61" d="M 2194 1759 
Q 1497 1759 1228 1600 
Q 959 1441 959 1056 
Q 959 750 1161 570 
Q 1363 391 1709 391 
Q 2188 391 2477 730 
Q 2766 1069 2766 1631 
L 2766 1759 
L 2194 1759 
z
M 3341 1997 
L 3341 0 
L 2766 0 
L 2766 531 
Q 2569 213 2275 61 
Q 1981 -91 1556 -91 
Q 1019 -91 701 211 
Q 384 513 384 1019 
Q 384 1609 779 1909 
Q 1175 2209 1959 2209 
L 2766 2209 
L 2766 2266 
Q 2766 2663 2505 2880 
Q 2244 3097 1772 3097 
Q 1472 3097 1187 3025 
Q 903 2953 641 2809 
L 641 3341 
Q 956 3463 1253 3523 
Q 1550 3584 1831 3584 
Q 2591 3584 2966 3190 
Q 3341 2797 3341 1997 
z
" transform="scale(0.015625)"/>
       <path id="DejaVuSans-79" d="M 2059 -325 
Q 1816 -950 1584 -1140 
Q 1353 -1331 966 -1331 
L 506 -1331 
L 506 -850 
L 844 -850 
Q 1081 -850 1212 -737 
Q 1344 -625 1503 -206 
L 1606 56 
L 191 3500 
L 800 3500 
L 1894 763 
L 2988 3500 
L 3597 3500 
L 2059 -325 
z
" transform="scale(0.015625)"/>
       <path id="DejaVuSans-6c" d="M 603 4863 
L 1178 4863 
L 1178 0 
L 603 0 
L 603 4863 
z
" transform="scale(0.015625)"/>
       <path id="DejaVuSans-65" d="M 3597 1894 
L 3597 1613 
L 953 1613 
Q 991 1019 1311 708 
Q 1631 397 2203 397 
Q 2534 397 2845 478 
Q 3156 559 3463 722 
L 3463 178 
Q 3153 47 2828 -22 
Q 2503 -91 2169 -91 
Q 1331 -91 842 396 
Q 353 884 353 1716 
Q 353 2575 817 3079 
Q 1281 3584 2069 3584 
Q 2775 3584 3186 3129 
Q 3597 2675 3597 1894 
z
M 3022 2063 
Q 3016 2534 2758 2815 
Q 2500 3097 2075 3097 
Q 1594 3097 1305 2825 
Q 1016 2553 972 2059 
L 3022 2063 
z
" transform="scale(0.015625)"/>
       <path id="DejaVuSans-69" d="M 603 3500 
L 1178 3500 
L 1178 0 
L 603 0 
L 603 3500 
z
M 603 4863 
L 1178 4863 
L 1178 4134 
L 603 4134 
L 603 4863 
z
" transform="scale(0.015625)"/>
       <path id="DejaVuSans-67" d="M 2906 1791 
Q 2906 2416 2648 2759 
Q 2391 3103 1925 3103 
Q 1463 3103 1205 2759 
Q 947 2416 947 1791 
Q 947 1169 1205 825 
Q 1463 481 1925 481 
Q 2391 481 2648 825 
Q 2906 1169 2906 1791 
z
M 3481 434 
Q 3481 -459 3084 -895 
Q 2688 -1331 1869 -1331 
Q 1566 -1331 1297 -1286 
Q 1028 -1241 775 -1147 
L 775 -588 
Q 1028 -725 1275 -790 
Q 1522 -856 1778 -856 
Q 2344 -856 2625 -561 
Q 2906 -266 2906 331 
L 2906 616 
Q 2728 306 2450 153 
Q 2172 0 1784 0 
Q 1141 0 747 490 
Q 353 981 353 1791 
Q 353 2603 747 3093 
Q 1141 3584 1784 3584 
Q 2172 3584 2450 3431 
Q 2728 3278 2906 2969 
L 2906 3500 
L 3481 3500 
L 3481 434 
z
" transform="scale(0.015625)"/>
       <path id="DejaVuSans-68" d="M 3513 2113 
L 3513 0 
L 2938 0 
L 2938 2094 
Q 2938 2591 2744 2837 
Q 2550 3084 2163 3084 
Q 1697 3084 1428 2787 
Q 1159 2491 1159 1978 
L 1159 0 
L 581 0 
L 581 4863 
L 1159 4863 
L 1159 2956 
Q 1366 3272 1645 3428 
Q 1925 3584 2291 3584 
Q 2894 3584 3203 3211 
Q 3513 2838 3513 2113 
z
" transform="scale(0.015625)"/>
       <path id="DejaVuSans-20" transform="scale(0.015625)"/>
       <path id="DejaVuSans-71" d="M 947 1747 
Q 947 1113 1208 752 
Q 1469 391 1925 391 
Q 2381 391 2643 752 
Q 2906 1113 2906 1747 
Q 2906 2381 2643 2742 
Q 2381 3103 1925 3103 
Q 1469 3103 1208 2742 
Q 947 2381 947 1747 
z
M 2906 525 
Q 2725 213 2448 61 
Q 2172 -91 1784 -91 
Q 1150 -91 751 415 
Q 353 922 353 1747 
Q 353 2572 751 3078 
Q 1150 3584 1784 3584 
Q 2172 3584 2448 3432 
Q 2725 3281 2906 2969 
L 2906 3500 
L 3481 3500 
L 3481 -1331 
L 2906 -1331 
L 2906 525 
z
" transform="scale(0.015625)"/>
       <path id="DejaVuSans-75" d="M 544 1381 
L 544 3500 
L 1119 3500 
L 1119 1403 
Q 1119 906 1312 657 
Q 1506 409 1894 409 
Q 2359 409 2629 706 
Q 2900 1003 2900 1516 
L 2900 3500 
L 3475 3500 
L 3475 0 
L 2900 0 
L 2900 538 
Q 2691 219 2414 64 
Q 2138 -91 1772 -91 
Q 1169 -91 856 284 
Q 544 659 544 1381 
z
M 1991 3584 
L 1991 3584 
z
" transform="scale(0.015625)"/>
       <path id="DejaVuSans-6f" d="M 1959 3097 
Q 1497 3097 1228 2736 
Q 959 2375 959 1747 
Q 959 1119 1226 758 
Q 1494 397 1959 397 
Q 2419 397 2687 759 
Q 2956 1122 2956 1747 
Q 2956 2369 2687 2733 
Q 2419 3097 1959 3097 
z
M 1959 3584 
Q 2709 3584 3137 3096 
Q 3566 2609 3566 1747 
Q 3566 888 3137 398 
Q 2709 -91 1959 -91 
Q 1206 -91 779 398 
Q 353 888 353 1747 
Q 353 2609 779 3096 
Q 1206 3584 1959 3584 
z
" transform="scale(0.015625)"/>
       <path id="DejaVuSans-74" d="M 1172 4494 
L 1172 3500 
L 2356 3500 
L 2356 3053 
L 1172 3053 
L 1172 1153 
Q 1172 725 1289 603 
Q 1406 481 1766 481 
L 2356 481 
L 2356 0 
L 1766 0 
Q 1100 0 847 248 
Q 594 497 594 1153 
L 594 3053 
L 172 3053 
L 172 3500 
L 594 3500 
L 594 4494 
L 1172 4494 
z
" transform="scale(0.015625)"/>
       <path id="DejaVuSans-6e" d="M 3513 2113 
L 3513 0 
L 2938 0 
L 2938 2094 
Q 2938 2591 2744 2837 
Q 2550 3084 2163 3084 
Q 1697 3084 1428 2787 
Q 1159 2491 1159 1978 
L 1159 0 
L 581 0 
L 581 3500 
L 1159 3500 
L 1159 2956 
Q 1366 3272 1645 3428 
Q 1925 3584 2291 3584 
Q 2894 3584 3203 3211 
Q 3513 2838 3513 2113 
z
" transform="scale(0.015625)"/>
       <path id="STIXSizeOneSym-Regular-5b" d="M 2323 -1050 
L 1152 -1050 
L 1152 6822 
L 2323 6822 
L 2323 6611 
L 1600 6611 
L 1600 -838 
L 2323 -838 
L 2323 -1050 
z
" transform="scale(0.015625)"/>
       <path id="DejaVuSans-28" d="M 1984 4856 
Q 1566 4138 1362 3434 
Q 1159 2731 1159 2009 
Q 1159 1288 1364 580 
Q 1569 -128 1984 -844 
L 1484 -844 
Q 1016 -109 783 600 
Q 550 1309 550 2009 
Q 550 2706 781 3412 
Q 1013 4119 1484 4856 
L 1984 4856 
z
" transform="scale(0.015625)"/>
       <path id="STIXNonUnicode-Italic-e232" d="M 378 3418 
L 275 3533 
Q 730 3955 1174 4096 
Q 1619 4237 2163 4237 
Q 2714 4237 3110 4208 
Q 3507 4179 3849 4099 
Q 4192 4019 4368 3868 
Q 4544 3718 4544 3488 
Q 4544 3270 4429 3123 
Q 4314 2976 4109 2976 
Q 3962 2976 3853 3062 
Q 3744 3149 3744 3277 
Q 3744 3398 3792 3465 
Q 3840 3533 3897 3549 
Q 3955 3565 4000 3593 
Q 4045 3622 4045 3680 
Q 4045 3808 3696 3894 
Q 3347 3981 2893 3981 
Q 2694 3981 2608 3920 
Q 2522 3859 2464 3667 
L 2099 2413 
L 3494 2413 
L 3411 2157 
L 2029 2157 
L 1747 1203 
Q 1626 787 1491 537 
Q 1357 288 1174 173 
Q 992 58 829 29 
Q 666 0 384 0 
L 435 154 
Q 608 154 726 288 
Q 845 422 934 742 
L 1690 3334 
Q 1754 3558 1754 3667 
Q 1754 3776 1690 3827 
Q 1626 3878 1459 3878 
Q 858 3878 378 3418 
z
" transform="scale(0.015625)"/>
       <path id="DejaVuSans-2a" d="M 3009 3897 
L 1888 3291 
L 3009 2681 
L 2828 2375 
L 1778 3009 
L 1778 1831 
L 1422 1831 
L 1422 3009 
L 372 2375 
L 191 2681 
L 1313 3291 
L 191 3897 
L 372 4206 
L 1422 3572 
L 1422 4750 
L 1778 4750 
L 1778 3572 
L 2828 4206 
L 3009 3897 
z
" transform="scale(0.015625)"/>
       <path id="DejaVuSans-29" d="M 513 4856 
L 1013 4856 
Q 1481 4119 1714 3412 
Q 1947 2706 1947 2009 
Q 1947 1309 1714 600 
Q 1481 -109 1013 -844 
L 513 -844 
Q 928 -128 1133 580 
Q 1338 1288 1338 2009 
Q 1338 2731 1133 3434 
Q 928 4138 513 4856 
z
" transform="scale(0.015625)"/>
       <path id="STIXSizeOneSym-Regular-5d" d="M 1299 -1050 
L 128 -1050 
L 128 -838 
L 851 -838 
L 851 6611 
L 128 6611 
L 128 6822 
L 1299 6822 
L 1299 -1050 
z
" transform="scale(0.015625)"/>
      </defs>
      <use xlink:href="#DejaVuSans-52" transform="translate(0 0.765625)"/>
      <use xlink:href="#DejaVuSans-61" transform="translate(69.482422 0.765625)"/>
      <use xlink:href="#DejaVuSans-79" transform="translate(130.761719 0.765625)"/>
      <use xlink:href="#DejaVuSans-6c" transform="translate(189.941406 0.765625)"/>
      <use xlink:href="#DejaVuSans-65" transform="translate(217.724609 0.765625)"/>
      <use xlink:href="#DejaVuSans-69" transform="translate(279.248047 0.765625)"/>
      <use xlink:href="#DejaVuSans-67" transform="translate(307.03125 0.765625)"/>
      <use xlink:href="#DejaVuSans-68" transform="translate(370.507812 0.765625)"/>
      <use xlink:href="#DejaVuSans-20" transform="translate(433.886719 0.765625)"/>
      <use xlink:href="#DejaVuSans-71" transform="translate(465.673828 0.765625)"/>
      <use xlink:href="#DejaVuSans-75" transform="translate(529.150391 0.765625)"/>
      <use xlink:href="#DejaVuSans-6f" transform="translate(592.529297 0.765625)"/>
      <use xlink:href="#DejaVuSans-74" transform="translate(653.710938 0.765625)"/>
      <use xlink:href="#DejaVuSans-69" transform="translate(692.919922 0.765625)"/>
      <use xlink:href="#DejaVuSans-65" transform="translate(720.703125 0.765625)"/>
      <use xlink:href="#DejaVuSans-6e" transform="translate(782.226562 0.765625)"/>
      <use xlink:href="#DejaVuSans-74" transform="translate(845.605469 0.765625)"/>
      <use xlink:href="#DejaVuSans-20" transform="translate(884.814453 0.765625)"/>
      <use xlink:href="#STIXSizeOneSym-Regular-5b" transform="translate(916.601562 1.359375) scale(0.840828)"/>
      <use xlink:href="#DejaVuSans-28" transform="translate(948.821442 0.765625)"/>
      <use xlink:href="#STIXNonUnicode-Italic-e232" transform="translate(987.835114 0.765625)"/>
      <use xlink:href="#DejaVuSans-2a" transform="translate(1067.629837 39.046875) scale(0.7)"/>
      <use xlink:href="#DejaVuSans-29" transform="translate(1119.001907 0.765625)"/>
      <use xlink:href="#DejaVuSans-2212" transform="translate(1158.97261 39.046875) scale(0.7)"/>
      <use xlink:href="#DejaVuSans-31" transform="translate(1217.624954 39.046875) scale(0.7)"/>
      <use xlink:href="#STIXSizeOneSym-Regular-5d" transform="translate(1264.895462 1.359375) scale(0.840828)"/>
     </g>
    </g>
   </g>
   <g id="matplotlib.axis_2">
    <g id="ytick_1">
     <g id="line2d_91">
      <defs>
       <path id="m3cf3f79fa0" d="M 0 0 
L -3.5 0 
" style="stroke: #000000; stroke-width: 0.8"/>
      </defs>
      <g>
       <use xlink:href="#m3cf3f79fa0" x="57.185" y="266.36875" style="stroke: #000000; stroke-width: 0.8"/>
      </g>
     </g>
     <g id="text_12">
      <!-- $\mathdefault{10^{-6}}$ -->
      <g transform="translate(26.685 270.167968) scale(0.1 -0.1)">
       <use xlink:href="#DejaVuSans-31" transform="translate(0 0.765625)"/>
       <use xlink:href="#DejaVuSans-30" transform="translate(63.623047 0.765625)"/>
       <use xlink:href="#DejaVuSans-2212" transform="translate(128.203125 39.046875) scale(0.7)"/>
       <use xlink:href="#DejaVuSans-36" transform="translate(186.855469 39.046875) scale(0.7)"/>
      </g>
     </g>
    </g>
    <g id="ytick_2">
     <g id="line2d_92">
      <g>
       <use xlink:href="#m3cf3f79fa0" x="57.185" y="223.807161" style="stroke: #000000; stroke-width: 0.8"/>
      </g>
     </g>
     <g id="text_13">
      <!-- $\mathdefault{10^{-5}}$ -->
      <g transform="translate(26.685 227.60638) scale(0.1 -0.1)">
       <use xlink:href="#DejaVuSans-31" transform="translate(0 0.684375)"/>
       <use xlink:href="#DejaVuSans-30" transform="translate(63.623047 0.684375)"/>
       <use xlink:href="#DejaVuSans-2212" transform="translate(128.203125 38.965625) scale(0.7)"/>
       <use xlink:href="#DejaVuSans-35" transform="translate(186.855469 38.965625) scale(0.7)"/>
      </g>
     </g>
    </g>
    <g id="ytick_3">
     <g id="line2d_93">
      <g>
       <use xlink:href="#m3cf3f79fa0" x="57.185" y="181.245573" style="stroke: #000000; stroke-width: 0.8"/>
      </g>
     </g>
     <g id="text_14">
      <!-- $\mathdefault{10^{-4}}$ -->
      <g transform="translate(26.685 185.044791) scale(0.1 -0.1)">
       <use xlink:href="#DejaVuSans-31" transform="translate(0 0.684375)"/>
       <use xlink:href="#DejaVuSans-30" transform="translate(63.623047 0.684375)"/>
       <use xlink:href="#DejaVuSans-2212" transform="translate(128.203125 38.965625) scale(0.7)"/>
       <use xlink:href="#DejaVuSans-34" transform="translate(186.855469 38.965625) scale(0.7)"/>
      </g>
     </g>
    </g>
    <g id="ytick_4">
     <g id="line2d_94">
      <g>
       <use xlink:href="#m3cf3f79fa0" x="57.185" y="138.683984" style="stroke: #000000; stroke-width: 0.8"/>
      </g>
     </g>
     <g id="text_15">
      <!-- $\mathdefault{10^{-3}}$ -->
      <g transform="translate(26.685 142.483203) scale(0.1 -0.1)">
       <use xlink:href="#DejaVuSans-31" transform="translate(0 0.765625)"/>
       <use xlink:href="#DejaVuSans-30" transform="translate(63.623047 0.765625)"/>
       <use xlink:href="#DejaVuSans-2212" transform="translate(128.203125 39.046875) scale(0.7)"/>
       <use xlink:href="#DejaVuSans-33" transform="translate(186.855469 39.046875) scale(0.7)"/>
      </g>
     </g>
    </g>
    <g id="ytick_5">
     <g id="line2d_95">
      <g>
       <use xlink:href="#m3cf3f79fa0" x="57.185" y="96.122396" style="stroke: #000000; stroke-width: 0.8"/>
      </g>
     </g>
     <g id="text_16">
      <!-- $\mathdefault{10^{-2}}$ -->
      <g transform="translate(26.685 99.921614) scale(0.1 -0.1)">
       <use xlink:href="#DejaVuSans-31" transform="translate(0 0.765625)"/>
       <use xlink:href="#DejaVuSans-30" transform="translate(63.623047 0.765625)"/>
       <use xlink:href="#DejaVuSans-2212" transform="translate(128.203125 39.046875) scale(0.7)"/>
       <use xlink:href="#DejaVuSans-32" transform="translate(186.855469 39.046875) scale(0.7)"/>
      </g>
     </g>
    </g>
    <g id="ytick_6">
     <g id="line2d_96">
      <g>
       <use xlink:href="#m3cf3f79fa0" x="57.185" y="53.560807" style="stroke: #000000; stroke-width: 0.8"/>
      </g>
     </g>
     <g id="text_17">
      <!-- $\mathdefault{10^{-1}}$ -->
      <g transform="translate(26.685 57.360026) scale(0.1 -0.1)">
       <use xlink:href="#DejaVuSans-31" transform="translate(0 0.684375)"/>
       <use xlink:href="#DejaVuSans-30" transform="translate(63.623047 0.684375)"/>
       <use xlink:href="#DejaVuSans-2212" transform="translate(128.203125 38.965625) scale(0.7)"/>
       <use xlink:href="#DejaVuSans-31" transform="translate(186.855469 38.965625) scale(0.7)"/>
      </g>
     </g>
    </g>
    <g id="ytick_7">
     <g id="line2d_97">
      <g>
       <use xlink:href="#m3cf3f79fa0" x="57.185" y="10.999219" style="stroke: #000000; stroke-width: 0.8"/>
      </g>
     </g>
     <g id="text_18">
      <!-- $\mathdefault{10^{0}}$ -->
      <g transform="translate(32.585 14.798437) scale(0.1 -0.1)">
       <use xlink:href="#DejaVuSans-31" transform="translate(0 0.765625)"/>
       <use xlink:href="#DejaVuSans-30" transform="translate(63.623047 0.765625)"/>
       <use xlink:href="#DejaVuSans-30" transform="translate(128.203125 39.046875) scale(0.7)"/>
      </g>
     </g>
    </g>
    <g id="ytick_8">
     <g id="line2d_98">
      <defs>
       <path id="mb1cecb600d" d="M 0 0 
L -2 0 
" style="stroke: #000000; stroke-width: 0.6"/>
      </defs>
      <g>
       <use xlink:href="#mb1cecb600d" x="57.185" y="275.810985" style="stroke: #000000; stroke-width: 0.6"/>
      </g>
     </g>
    </g>
    <g id="ytick_9">
     <g id="line2d_99">
      <g>
       <use xlink:href="#mb1cecb600d" x="57.185" y="272.961623" style="stroke: #000000; stroke-width: 0.6"/>
      </g>
     </g>
    </g>
    <g id="ytick_10">
     <g id="line2d_100">
      <g>
       <use xlink:href="#mb1cecb600d" x="57.185" y="270.493394" style="stroke: #000000; stroke-width: 0.6"/>
      </g>
     </g>
    </g>
    <g id="ytick_11">
     <g id="line2d_101">
      <g>
       <use xlink:href="#mb1cecb600d" x="57.185" y="268.316261" style="stroke: #000000; stroke-width: 0.6"/>
      </g>
     </g>
    </g>
    <g id="ytick_12">
     <g id="line2d_102">
      <g>
       <use xlink:href="#mb1cecb600d" x="57.185" y="253.556435" style="stroke: #000000; stroke-width: 0.6"/>
      </g>
     </g>
    </g>
    <g id="ytick_13">
     <g id="line2d_103">
      <g>
       <use xlink:href="#mb1cecb600d" x="57.185" y="246.061711" style="stroke: #000000; stroke-width: 0.6"/>
      </g>
     </g>
    </g>
    <g id="ytick_14">
     <g id="line2d_104">
      <g>
       <use xlink:href="#mb1cecb600d" x="57.185" y="240.74412" style="stroke: #000000; stroke-width: 0.6"/>
      </g>
     </g>
    </g>
    <g id="ytick_15">
     <g id="line2d_105">
      <g>
       <use xlink:href="#mb1cecb600d" x="57.185" y="236.619476" style="stroke: #000000; stroke-width: 0.6"/>
      </g>
     </g>
    </g>
    <g id="ytick_16">
     <g id="line2d_106">
      <g>
       <use xlink:href="#mb1cecb600d" x="57.185" y="233.249396" style="stroke: #000000; stroke-width: 0.6"/>
      </g>
     </g>
    </g>
    <g id="ytick_17">
     <g id="line2d_107">
      <g>
       <use xlink:href="#mb1cecb600d" x="57.185" y="230.400035" style="stroke: #000000; stroke-width: 0.6"/>
      </g>
     </g>
    </g>
    <g id="ytick_18">
     <g id="line2d_108">
      <g>
       <use xlink:href="#mb1cecb600d" x="57.185" y="227.931805" style="stroke: #000000; stroke-width: 0.6"/>
      </g>
     </g>
    </g>
    <g id="ytick_19">
     <g id="line2d_109">
      <g>
       <use xlink:href="#mb1cecb600d" x="57.185" y="225.754673" style="stroke: #000000; stroke-width: 0.6"/>
      </g>
     </g>
    </g>
    <g id="ytick_20">
     <g id="line2d_110">
      <g>
       <use xlink:href="#mb1cecb600d" x="57.185" y="210.994846" style="stroke: #000000; stroke-width: 0.6"/>
      </g>
     </g>
    </g>
    <g id="ytick_21">
     <g id="line2d_111">
      <g>
       <use xlink:href="#mb1cecb600d" x="57.185" y="203.500123" style="stroke: #000000; stroke-width: 0.6"/>
      </g>
     </g>
    </g>
    <g id="ytick_22">
     <g id="line2d_112">
      <g>
       <use xlink:href="#mb1cecb600d" x="57.185" y="198.182532" style="stroke: #000000; stroke-width: 0.6"/>
      </g>
     </g>
    </g>
    <g id="ytick_23">
     <g id="line2d_113">
      <g>
       <use xlink:href="#mb1cecb600d" x="57.185" y="194.057887" style="stroke: #000000; stroke-width: 0.6"/>
      </g>
     </g>
    </g>
    <g id="ytick_24">
     <g id="line2d_114">
      <g>
       <use xlink:href="#mb1cecb600d" x="57.185" y="190.687808" style="stroke: #000000; stroke-width: 0.6"/>
      </g>
     </g>
    </g>
    <g id="ytick_25">
     <g id="line2d_115">
      <g>
       <use xlink:href="#mb1cecb600d" x="57.185" y="187.838446" style="stroke: #000000; stroke-width: 0.6"/>
      </g>
     </g>
    </g>
    <g id="ytick_26">
     <g id="line2d_116">
      <g>
       <use xlink:href="#mb1cecb600d" x="57.185" y="185.370217" style="stroke: #000000; stroke-width: 0.6"/>
      </g>
     </g>
    </g>
    <g id="ytick_27">
     <g id="line2d_117">
      <g>
       <use xlink:href="#mb1cecb600d" x="57.185" y="183.193084" style="stroke: #000000; stroke-width: 0.6"/>
      </g>
     </g>
    </g>
    <g id="ytick_28">
     <g id="line2d_118">
      <g>
       <use xlink:href="#mb1cecb600d" x="57.185" y="168.433258" style="stroke: #000000; stroke-width: 0.6"/>
      </g>
     </g>
    </g>
    <g id="ytick_29">
     <g id="line2d_119">
      <g>
       <use xlink:href="#mb1cecb600d" x="57.185" y="160.938534" style="stroke: #000000; stroke-width: 0.6"/>
      </g>
     </g>
    </g>
    <g id="ytick_30">
     <g id="line2d_120">
      <g>
       <use xlink:href="#mb1cecb600d" x="57.185" y="155.620943" style="stroke: #000000; stroke-width: 0.6"/>
      </g>
     </g>
    </g>
    <g id="ytick_31">
     <g id="line2d_121">
      <g>
       <use xlink:href="#mb1cecb600d" x="57.185" y="151.496299" style="stroke: #000000; stroke-width: 0.6"/>
      </g>
     </g>
    </g>
    <g id="ytick_32">
     <g id="line2d_122">
      <g>
       <use xlink:href="#mb1cecb600d" x="57.185" y="148.126219" style="stroke: #000000; stroke-width: 0.6"/>
      </g>
     </g>
    </g>
    <g id="ytick_33">
     <g id="line2d_123">
      <g>
       <use xlink:href="#mb1cecb600d" x="57.185" y="145.276858" style="stroke: #000000; stroke-width: 0.6"/>
      </g>
     </g>
    </g>
    <g id="ytick_34">
     <g id="line2d_124">
      <g>
       <use xlink:href="#mb1cecb600d" x="57.185" y="142.808628" style="stroke: #000000; stroke-width: 0.6"/>
      </g>
     </g>
    </g>
    <g id="ytick_35">
     <g id="line2d_125">
      <g>
       <use xlink:href="#mb1cecb600d" x="57.185" y="140.631496" style="stroke: #000000; stroke-width: 0.6"/>
      </g>
     </g>
    </g>
    <g id="ytick_36">
     <g id="line2d_126">
      <g>
       <use xlink:href="#mb1cecb600d" x="57.185" y="125.871669" style="stroke: #000000; stroke-width: 0.6"/>
      </g>
     </g>
    </g>
    <g id="ytick_37">
     <g id="line2d_127">
      <g>
       <use xlink:href="#mb1cecb600d" x="57.185" y="118.376946" style="stroke: #000000; stroke-width: 0.6"/>
      </g>
     </g>
    </g>
    <g id="ytick_38">
     <g id="line2d_128">
      <g>
       <use xlink:href="#mb1cecb600d" x="57.185" y="113.059355" style="stroke: #000000; stroke-width: 0.6"/>
      </g>
     </g>
    </g>
    <g id="ytick_39">
     <g id="line2d_129">
      <g>
       <use xlink:href="#mb1cecb600d" x="57.185" y="108.934711" style="stroke: #000000; stroke-width: 0.6"/>
      </g>
     </g>
    </g>
    <g id="ytick_40">
     <g id="line2d_130">
      <g>
       <use xlink:href="#mb1cecb600d" x="57.185" y="105.564631" style="stroke: #000000; stroke-width: 0.6"/>
      </g>
     </g>
    </g>
    <g id="ytick_41">
     <g id="line2d_131">
      <g>
       <use xlink:href="#mb1cecb600d" x="57.185" y="102.715269" style="stroke: #000000; stroke-width: 0.6"/>
      </g>
     </g>
    </g>
    <g id="ytick_42">
     <g id="line2d_132">
      <g>
       <use xlink:href="#mb1cecb600d" x="57.185" y="100.24704" style="stroke: #000000; stroke-width: 0.6"/>
      </g>
     </g>
    </g>
    <g id="ytick_43">
     <g id="line2d_133">
      <g>
       <use xlink:href="#mb1cecb600d" x="57.185" y="98.069907" style="stroke: #000000; stroke-width: 0.6"/>
      </g>
     </g>
    </g>
    <g id="ytick_44">
     <g id="line2d_134">
      <g>
       <use xlink:href="#mb1cecb600d" x="57.185" y="83.310081" style="stroke: #000000; stroke-width: 0.6"/>
      </g>
     </g>
    </g>
    <g id="ytick_45">
     <g id="line2d_135">
      <g>
       <use xlink:href="#mb1cecb600d" x="57.185" y="75.815357" style="stroke: #000000; stroke-width: 0.6"/>
      </g>
     </g>
    </g>
    <g id="ytick_46">
     <g id="line2d_136">
      <g>
       <use xlink:href="#mb1cecb600d" x="57.185" y="70.497766" style="stroke: #000000; stroke-width: 0.6"/>
      </g>
     </g>
    </g>
    <g id="ytick_47">
     <g id="line2d_137">
      <g>
       <use xlink:href="#mb1cecb600d" x="57.185" y="66.373122" style="stroke: #000000; stroke-width: 0.6"/>
      </g>
     </g>
    </g>
    <g id="ytick_48">
     <g id="line2d_138">
      <g>
       <use xlink:href="#mb1cecb600d" x="57.185" y="63.003042" style="stroke: #000000; stroke-width: 0.6"/>
      </g>
     </g>
    </g>
    <g id="ytick_49">
     <g id="line2d_139">
      <g>
       <use xlink:href="#mb1cecb600d" x="57.185" y="60.153681" style="stroke: #000000; stroke-width: 0.6"/>
      </g>
     </g>
    </g>
    <g id="ytick_50">
     <g id="line2d_140">
      <g>
       <use xlink:href="#mb1cecb600d" x="57.185" y="57.685451" style="stroke: #000000; stroke-width: 0.6"/>
      </g>
     </g>
    </g>
    <g id="ytick_51">
     <g id="line2d_141">
      <g>
       <use xlink:href="#mb1cecb600d" x="57.185" y="55.508319" style="stroke: #000000; stroke-width: 0.6"/>
      </g>
     </g>
    </g>
    <g id="ytick_52">
     <g id="line2d_142">
      <g>
       <use xlink:href="#mb1cecb600d" x="57.185" y="40.748492" style="stroke: #000000; stroke-width: 0.6"/>
      </g>
     </g>
    </g>
    <g id="ytick_53">
     <g id="line2d_143">
      <g>
       <use xlink:href="#mb1cecb600d" x="57.185" y="33.253769" style="stroke: #000000; stroke-width: 0.6"/>
      </g>
     </g>
    </g>
    <g id="ytick_54">
     <g id="line2d_144">
      <g>
       <use xlink:href="#mb1cecb600d" x="57.185" y="27.936178" style="stroke: #000000; stroke-width: 0.6"/>
      </g>
     </g>
    </g>
    <g id="ytick_55">
     <g id="line2d_145">
      <g>
       <use xlink:href="#mb1cecb600d" x="57.185" y="23.811534" style="stroke: #000000; stroke-width: 0.6"/>
      </g>
     </g>
    </g>
    <g id="ytick_56">
     <g id="line2d_146">
      <g>
       <use xlink:href="#mb1cecb600d" x="57.185" y="20.441454" style="stroke: #000000; stroke-width: 0.6"/>
      </g>
     </g>
    </g>
    <g id="ytick_57">
     <g id="line2d_147">
      <g>
       <use xlink:href="#mb1cecb600d" x="57.185" y="17.592092" style="stroke: #000000; stroke-width: 0.6"/>
      </g>
     </g>
    </g>
    <g id="ytick_58">
     <g id="line2d_148">
      <g>
       <use xlink:href="#mb1cecb600d" x="57.185" y="15.123863" style="stroke: #000000; stroke-width: 0.6"/>
      </g>
     </g>
    </g>
    <g id="ytick_59">
     <g id="line2d_149">
      <g>
       <use xlink:href="#mb1cecb600d" x="57.185" y="12.94673" style="stroke: #000000; stroke-width: 0.6"/>
      </g>
     </g>
    </g>
    <g id="text_19">
     <!-- Density -->
     <g transform="translate(19.3575 173.737034) rotate(-90) scale(0.16 -0.16)">
      <defs>
       <path id="DejaVuSans-44" d="M 1259 4147 
L 1259 519 
L 2022 519 
Q 2988 519 3436 956 
Q 3884 1394 3884 2338 
Q 3884 3275 3436 3711 
Q 2988 4147 2022 4147 
L 1259 4147 
z
M 628 4666 
L 1925 4666 
Q 3281 4666 3915 4102 
Q 4550 3538 4550 2338 
Q 4550 1131 3912 565 
Q 3275 0 1925 0 
L 628 0 
L 628 4666 
z
" transform="scale(0.015625)"/>
       <path id="DejaVuSans-73" d="M 2834 3397 
L 2834 2853 
Q 2591 2978 2328 3040 
Q 2066 3103 1784 3103 
Q 1356 3103 1142 2972 
Q 928 2841 928 2578 
Q 928 2378 1081 2264 
Q 1234 2150 1697 2047 
L 1894 2003 
Q 2506 1872 2764 1633 
Q 3022 1394 3022 966 
Q 3022 478 2636 193 
Q 2250 -91 1575 -91 
Q 1294 -91 989 -36 
Q 684 19 347 128 
L 347 722 
Q 666 556 975 473 
Q 1284 391 1588 391 
Q 1994 391 2212 530 
Q 2431 669 2431 922 
Q 2431 1156 2273 1281 
Q 2116 1406 1581 1522 
L 1381 1569 
Q 847 1681 609 1914 
Q 372 2147 372 2553 
Q 372 3047 722 3315 
Q 1072 3584 1716 3584 
Q 2034 3584 2315 3537 
Q 2597 3491 2834 3397 
z
" transform="scale(0.015625)"/>
      </defs>
      <use xlink:href="#DejaVuSans-44"/>
      <use xlink:href="#DejaVuSans-65" transform="translate(77.001953 0)"/>
      <use xlink:href="#DejaVuSans-6e" transform="translate(138.525391 0)"/>
      <use xlink:href="#DejaVuSans-73" transform="translate(201.904297 0)"/>
      <use xlink:href="#DejaVuSans-69" transform="translate(254.003906 0)"/>
      <use xlink:href="#DejaVuSans-74" transform="translate(281.787109 0)"/>
      <use xlink:href="#DejaVuSans-79" transform="translate(320.996094 0)"/>
     </g>
    </g>
   </g>
   <g id="patch_122">
    <path d="M 57.185 276.379284 
L 57.185 10.267284 
" style="fill: none; stroke: #000000; stroke-width: 0.8; stroke-linejoin: miter; stroke-linecap: square"/>
   </g>
   <g id="patch_123">
    <path d="M 414.305 276.379284 
L 414.305 10.267284 
" style="fill: none; stroke: #000000; stroke-width: 0.8; stroke-linejoin: miter; stroke-linecap: square"/>
   </g>
   <g id="patch_124">
    <path d="M 57.185 276.379284 
L 414.305 276.379284 
" style="fill: none; stroke: #000000; stroke-width: 0.8; stroke-linejoin: miter; stroke-linecap: square"/>
   </g>
   <g id="patch_125">
    <path d="M 57.185 10.267284 
L 414.305 10.267284 
" style="fill: none; stroke: #000000; stroke-width: 0.8; stroke-linejoin: miter; stroke-linecap: square"/>
   </g>
  </g>
  <g id="axes_2">
   <g id="matplotlib.axis_3">
    <g id="ytick_60">
     <g id="line2d_150">
      <defs>
       <path id="mcb219bfe46" d="M 0 0 
L 3.5 0 
" style="stroke: #d62728; stroke-width: 0.8"/>
      </defs>
      <g>
       <use xlink:href="#mcb219bfe46" x="414.305" y="273.770343" style="fill: #d62728; stroke: #d62728; stroke-width: 0.8"/>
      </g>
     </g>
     <g id="text_20">
      <!-- 0.0 -->
      <g style="fill: #d62728" transform="translate(421.305 277.569561) scale(0.1 -0.1)">
       <defs>
        <path id="DejaVuSans-2e" d="M 684 794 
L 1344 794 
L 1344 0 
L 684 0 
L 684 794 
z
" transform="scale(0.015625)"/>
       </defs>
       <use xlink:href="#DejaVuSans-30"/>
       <use xlink:href="#DejaVuSans-2e" transform="translate(63.623047 0)"/>
       <use xlink:href="#DejaVuSans-30" transform="translate(95.410156 0)"/>
      </g>
     </g>
    </g>
    <g id="ytick_61">
     <g id="line2d_151">
      <g>
       <use xlink:href="#mcb219bfe46" x="414.305" y="221.591519" style="fill: #d62728; stroke: #d62728; stroke-width: 0.8"/>
      </g>
     </g>
     <g id="text_21">
      <!-- 0.2 -->
      <g style="fill: #d62728" transform="translate(421.305 225.390738) scale(0.1 -0.1)">
       <use xlink:href="#DejaVuSans-30"/>
       <use xlink:href="#DejaVuSans-2e" transform="translate(63.623047 0)"/>
       <use xlink:href="#DejaVuSans-32" transform="translate(95.410156 0)"/>
      </g>
     </g>
    </g>
    <g id="ytick_62">
     <g id="line2d_152">
      <g>
       <use xlink:href="#mcb219bfe46" x="414.305" y="169.412696" style="fill: #d62728; stroke: #d62728; stroke-width: 0.8"/>
      </g>
     </g>
     <g id="text_22">
      <!-- 0.4 -->
      <g style="fill: #d62728" transform="translate(421.305 173.211914) scale(0.1 -0.1)">
       <use xlink:href="#DejaVuSans-30"/>
       <use xlink:href="#DejaVuSans-2e" transform="translate(63.623047 0)"/>
       <use xlink:href="#DejaVuSans-34" transform="translate(95.410156 0)"/>
      </g>
     </g>
    </g>
    <g id="ytick_63">
     <g id="line2d_153">
      <g>
       <use xlink:href="#mcb219bfe46" x="414.305" y="117.233872" style="fill: #d62728; stroke: #d62728; stroke-width: 0.8"/>
      </g>
     </g>
     <g id="text_23">
      <!-- 0.6 -->
      <g style="fill: #d62728" transform="translate(421.305 121.033091) scale(0.1 -0.1)">
       <use xlink:href="#DejaVuSans-30"/>
       <use xlink:href="#DejaVuSans-2e" transform="translate(63.623047 0)"/>
       <use xlink:href="#DejaVuSans-36" transform="translate(95.410156 0)"/>
      </g>
     </g>
    </g>
    <g id="ytick_64">
     <g id="line2d_154">
      <g>
       <use xlink:href="#mcb219bfe46" x="414.305" y="65.055049" style="fill: #d62728; stroke: #d62728; stroke-width: 0.8"/>
      </g>
     </g>
     <g id="text_24">
      <!-- 0.8 -->
      <g style="fill: #d62728" transform="translate(421.305 68.854267) scale(0.1 -0.1)">
       <defs>
        <path id="DejaVuSans-38" d="M 2034 2216 
Q 1584 2216 1326 1975 
Q 1069 1734 1069 1313 
Q 1069 891 1326 650 
Q 1584 409 2034 409 
Q 2484 409 2743 651 
Q 3003 894 3003 1313 
Q 3003 1734 2745 1975 
Q 2488 2216 2034 2216 
z
M 1403 2484 
Q 997 2584 770 2862 
Q 544 3141 544 3541 
Q 544 4100 942 4425 
Q 1341 4750 2034 4750 
Q 2731 4750 3128 4425 
Q 3525 4100 3525 3541 
Q 3525 3141 3298 2862 
Q 3072 2584 2669 2484 
Q 3125 2378 3379 2068 
Q 3634 1759 3634 1313 
Q 3634 634 3220 271 
Q 2806 -91 2034 -91 
Q 1263 -91 848 271 
Q 434 634 434 1313 
Q 434 1759 690 2068 
Q 947 2378 1403 2484 
z
M 1172 3481 
Q 1172 3119 1398 2916 
Q 1625 2713 2034 2713 
Q 2441 2713 2670 2916 
Q 2900 3119 2900 3481 
Q 2900 3844 2670 4047 
Q 2441 4250 2034 4250 
Q 1625 4250 1398 4047 
Q 1172 3844 1172 3481 
z
" transform="scale(0.015625)"/>
       </defs>
       <use xlink:href="#DejaVuSans-30"/>
       <use xlink:href="#DejaVuSans-2e" transform="translate(63.623047 0)"/>
       <use xlink:href="#DejaVuSans-38" transform="translate(95.410156 0)"/>
      </g>
     </g>
    </g>
    <g id="ytick_65">
     <g id="line2d_155">
      <g>
       <use xlink:href="#mcb219bfe46" x="414.305" y="12.876225" style="fill: #d62728; stroke: #d62728; stroke-width: 0.8"/>
      </g>
     </g>
     <g id="text_25">
      <!-- 1.0 -->
      <g style="fill: #d62728" transform="translate(421.305 16.675444) scale(0.1 -0.1)">
       <use xlink:href="#DejaVuSans-31"/>
       <use xlink:href="#DejaVuSans-2e" transform="translate(63.623047 0)"/>
       <use xlink:href="#DejaVuSans-30" transform="translate(95.410156 0)"/>
      </g>
     </g>
    </g>
    <g id="text_26">
     <!-- Cumulative probability -->
     <g style="fill: #d62728" transform="translate(453.365625 234.207034) rotate(-90) scale(0.16 -0.16)">
      <defs>
       <path id="DejaVuSans-43" d="M 4122 4306 
L 4122 3641 
Q 3803 3938 3442 4084 
Q 3081 4231 2675 4231 
Q 1875 4231 1450 3742 
Q 1025 3253 1025 2328 
Q 1025 1406 1450 917 
Q 1875 428 2675 428 
Q 3081 428 3442 575 
Q 3803 722 4122 1019 
L 4122 359 
Q 3791 134 3420 21 
Q 3050 -91 2638 -91 
Q 1578 -91 968 557 
Q 359 1206 359 2328 
Q 359 3453 968 4101 
Q 1578 4750 2638 4750 
Q 3056 4750 3426 4639 
Q 3797 4528 4122 4306 
z
" transform="scale(0.015625)"/>
       <path id="DejaVuSans-6d" d="M 3328 2828 
Q 3544 3216 3844 3400 
Q 4144 3584 4550 3584 
Q 5097 3584 5394 3201 
Q 5691 2819 5691 2113 
L 5691 0 
L 5113 0 
L 5113 2094 
Q 5113 2597 4934 2840 
Q 4756 3084 4391 3084 
Q 3944 3084 3684 2787 
Q 3425 2491 3425 1978 
L 3425 0 
L 2847 0 
L 2847 2094 
Q 2847 2600 2669 2842 
Q 2491 3084 2119 3084 
Q 1678 3084 1418 2786 
Q 1159 2488 1159 1978 
L 1159 0 
L 581 0 
L 581 3500 
L 1159 3500 
L 1159 2956 
Q 1356 3278 1631 3431 
Q 1906 3584 2284 3584 
Q 2666 3584 2933 3390 
Q 3200 3197 3328 2828 
z
" transform="scale(0.015625)"/>
       <path id="DejaVuSans-76" d="M 191 3500 
L 800 3500 
L 1894 563 
L 2988 3500 
L 3597 3500 
L 2284 0 
L 1503 0 
L 191 3500 
z
" transform="scale(0.015625)"/>
       <path id="DejaVuSans-70" d="M 1159 525 
L 1159 -1331 
L 581 -1331 
L 581 3500 
L 1159 3500 
L 1159 2969 
Q 1341 3281 1617 3432 
Q 1894 3584 2278 3584 
Q 2916 3584 3314 3078 
Q 3713 2572 3713 1747 
Q 3713 922 3314 415 
Q 2916 -91 2278 -91 
Q 1894 -91 1617 61 
Q 1341 213 1159 525 
z
M 3116 1747 
Q 3116 2381 2855 2742 
Q 2594 3103 2138 3103 
Q 1681 3103 1420 2742 
Q 1159 2381 1159 1747 
Q 1159 1113 1420 752 
Q 1681 391 2138 391 
Q 2594 391 2855 752 
Q 3116 1113 3116 1747 
z
" transform="scale(0.015625)"/>
       <path id="DejaVuSans-72" d="M 2631 2963 
Q 2534 3019 2420 3045 
Q 2306 3072 2169 3072 
Q 1681 3072 1420 2755 
Q 1159 2438 1159 1844 
L 1159 0 
L 581 0 
L 581 3500 
L 1159 3500 
L 1159 2956 
Q 1341 3275 1631 3429 
Q 1922 3584 2338 3584 
Q 2397 3584 2469 3576 
Q 2541 3569 2628 3553 
L 2631 2963 
z
" transform="scale(0.015625)"/>
       <path id="DejaVuSans-62" d="M 3116 1747 
Q 3116 2381 2855 2742 
Q 2594 3103 2138 3103 
Q 1681 3103 1420 2742 
Q 1159 2381 1159 1747 
Q 1159 1113 1420 752 
Q 1681 391 2138 391 
Q 2594 391 2855 752 
Q 3116 1113 3116 1747 
z
M 1159 2969 
Q 1341 3281 1617 3432 
Q 1894 3584 2278 3584 
Q 2916 3584 3314 3078 
Q 3713 2572 3713 1747 
Q 3713 922 3314 415 
Q 2916 -91 2278 -91 
Q 1894 -91 1617 61 
Q 1341 213 1159 525 
L 1159 0 
L 581 0 
L 581 4863 
L 1159 4863 
L 1159 2969 
z
" transform="scale(0.015625)"/>
      </defs>
      <use xlink:href="#DejaVuSans-43"/>
      <use xlink:href="#DejaVuSans-75" transform="translate(69.824219 0)"/>
      <use xlink:href="#DejaVuSans-6d" transform="translate(133.203125 0)"/>
      <use xlink:href="#DejaVuSans-75" transform="translate(230.615234 0)"/>
      <use xlink:href="#DejaVuSans-6c" transform="translate(293.994141 0)"/>
      <use xlink:href="#DejaVuSans-61" transform="translate(321.777344 0)"/>
      <use xlink:href="#DejaVuSans-74" transform="translate(383.056641 0)"/>
      <use xlink:href="#DejaVuSans-69" transform="translate(422.265625 0)"/>
      <use xlink:href="#DejaVuSans-76" transform="translate(450.048828 0)"/>
      <use xlink:href="#DejaVuSans-65" transform="translate(509.228516 0)"/>
      <use xlink:href="#DejaVuSans-20" transform="translate(570.751953 0)"/>
      <use xlink:href="#DejaVuSans-70" transform="translate(602.539062 0)"/>
      <use xlink:href="#DejaVuSans-72" transform="translate(666.015625 0)"/>
      <use xlink:href="#DejaVuSans-6f" transform="translate(704.878906 0)"/>
      <use xlink:href="#DejaVuSans-62" transform="translate(766.060547 0)"/>
      <use xlink:href="#DejaVuSans-61" transform="translate(829.537109 0)"/>
      <use xlink:href="#DejaVuSans-62" transform="translate(890.816406 0)"/>
      <use xlink:href="#DejaVuSans-69" transform="translate(954.292969 0)"/>
      <use xlink:href="#DejaVuSans-6c" transform="translate(982.076172 0)"/>
      <use xlink:href="#DejaVuSans-69" transform="translate(1009.859375 0)"/>
      <use xlink:href="#DejaVuSans-74" transform="translate(1037.642578 0)"/>
      <use xlink:href="#DejaVuSans-79" transform="translate(1076.851562 0)"/>
     </g>
    </g>
   </g>
   <g id="line2d_156">
    <path d="M 73.417727 273.770051 
L 162.700763 273.654397 
L 165.084941 273.622271 
L 177.512042 273.210767 
L 179.699716 273.027065 
L 179.934243 272.990559 
L 180.45941 272.83431 
L 180.974743 272.496988 
L 181.178359 272.24991 
L 181.934328 270.124049 
L 182.108152 269.168157 
L 182.258023 268.145092 
L 182.369119 267.254327 
L 182.727966 263.360664 
L 182.756926 262.964931 
L 182.868036 261.325048 
L 183.320994 252.157183 
L 183.432092 249.224962 
L 183.583049 244.805017 
L 183.694153 241.172743 
L 183.732098 239.888874 
L 183.8432 235.890363 
L 183.930404 232.454641 
L 184.041506 227.86034 
L 184.11507 224.619418 
L 184.226169 219.450355 
L 184.29047 216.334724 
L 184.401552 210.759706 
L 184.425064 209.545638 
L 184.536167 203.644396 
L 184.558234 202.432664 
L 184.61218 199.437067 
L 184.723286 193.095992 
L 184.775133 190.106528 
L 184.886241 183.454415 
L 184.934636 180.497077 
L 185.045743 173.693681 
L 185.093142 170.724368 
L 185.204243 163.880084 
L 185.25276 160.859078 
L 185.363835 153.931851 
L 185.367657 153.685066 
L 185.478669 146.744404 
L 185.482765 146.495574 
L 185.593857 139.636395 
L 185.597772 139.386397 
L 185.708788 132.64404 
L 185.712973 132.391997 
L 185.824056 125.640878 
L 185.828209 125.387668 
L 185.939203 118.852669 
L 185.943473 118.597706 
L 186.05452 112.292261 
L 186.05905 112.034962 
L 186.17014 105.817717 
L 186.174926 105.558374 
L 186.285907 99.673779 
L 186.291377 99.411514 
L 186.402382 93.814301 
L 186.407668 93.550868 
L 186.518692 88.230229 
L 186.524648 87.963876 
L 186.63568 82.892068 
L 186.641871 82.623378 
L 186.752903 77.835446 
L 186.759606 77.564128 
L 186.870627 73.086649 
L 186.877972 72.812118 
L 186.988971 68.645677 
L 186.996673 68.368809 
L 187.107778 64.490041 
L 187.115967 64.210253 
L 187.227031 60.658878 
L 187.236375 60.374709 
L 187.347384 57.073623 
L 187.357863 56.785074 
L 187.468937 53.743624 
L 187.480267 53.45157 
L 187.591259 50.753284 
L 187.604085 50.455681 
L 187.71511 47.941097 
L 187.729408 47.638237 
L 187.840447 45.334223 
L 187.856059 45.026399 
L 187.967097 43.000128 
L 187.985676 42.683542 
L 188.096683 40.842434 
L 188.117024 40.519422 
L 188.228107 38.846829 
L 188.250431 38.516808 
L 188.36144 37.048653 
L 188.38709 36.70841 
L 188.49812 35.388911 
L 188.532008 35.026764 
L 188.643115 33.8787 
L 188.681616 33.502534 
L 188.792632 32.452308 
L 188.834301 32.065337 
L 188.945316 31.135145 
L 188.996118 30.722765 
L 189.107176 29.917864 
L 189.173811 29.463136 
L 189.284903 28.761331 
L 189.371059 28.253741 
L 189.482148 27.631958 
L 189.587793 27.069754 
L 189.698835 26.523613 
L 189.846723 25.846924 
L 189.957736 25.364451 
L 190.260045 24.279471 
L 190.371111 23.905934 
L 190.426786 23.735959 
L 190.535459 23.407398 
L 190.646409 23.090811 
L 190.783686 22.719903 
L 190.894684 22.425221 
L 190.98378 22.193622 
L 191.538854 20.990652 
L 191.62421 20.827101 
L 191.802979 20.50263 
L 192.096261 19.992411 
L 193.483983 18.137577 
L 193.640293 17.975779 
L 193.806613 17.811352 
L 194.502466 17.209429 
L 194.726188 17.043835 
L 194.837256 16.962352 
L 195.148086 16.734842 
L 195.287259 16.648394 
L 195.6396 16.425557 
L 195.911004 16.265219 
L 196.261878 16.068083 
L 196.97164 15.741274 
L 197.551079 15.510552 
L 197.67841 15.455061 
L 198.642919 15.163884 
L 200.946385 14.66564 
L 211.800462 13.856066 
L 217.728657 13.664771 
L 232.002765 13.288605 
L 251.103407 13.213547 
L 290.805999 12.95508 
L 304.293912 12.900173 
L 356.510336 12.876809 
L 394.659543 12.876225 
L 394.659543 12.876225 
" clip-path="url(#pca4546073c)" style="fill: none; stroke: #d62728; stroke-width: 1.5; stroke-linecap: square"/>
   </g>
   <g id="patch_126">
    <path d="M 57.185 276.379284 
L 57.185 10.267284 
" style="fill: none; stroke: #000000; stroke-width: 0.8; stroke-linejoin: miter; stroke-linecap: square"/>
   </g>
   <g id="patch_127">
    <path d="M 414.305 276.379284 
L 414.305 10.267284 
" style="fill: none; stroke: #d62728; stroke-width: 0.8; stroke-linejoin: miter; stroke-linecap: square"/>
   </g>
   <g id="patch_128">
    <path d="M 57.185 276.379284 
L 414.305 276.379284 
" style="fill: none; stroke: #000000; stroke-width: 0.8; stroke-linejoin: miter; stroke-linecap: square"/>
   </g>
   <g id="patch_129">
    <path d="M 57.185 10.267284 
L 414.305 10.267284 
" style="fill: none; stroke: #000000; stroke-width: 0.8; stroke-linejoin: miter; stroke-linecap: square"/>
   </g>
  </g>
 </g>
 <defs>
  <clipPath id="pca4546073c">
   <rect x="57.185" y="10.267284" width="357.12" height="266.112"/>
  </clipPath>
 </defs>
</svg>
